<?xml version="1.0" encoding="utf-8" standalone="no"?>
<!DOCTYPE svg PUBLIC "-//W3C//DTD SVG 1.1//EN"
  "http://www.w3.org/Graphics/SVG/1.1/DTD/svg11.dtd">
<!-- Created with matplotlib (https://matplotlib.org/) -->
<svg height="440.746375pt" version="1.1" viewBox="0 0 544.06375 440.746375" width="544.06375pt" xmlns="http://www.w3.org/2000/svg" xmlns:xlink="http://www.w3.org/1999/xlink">
 <metadata>
  <rdf:RDF xmlns:cc="http://creativecommons.org/ns#" xmlns:dc="http://purl.org/dc/elements/1.1/" xmlns:rdf="http://www.w3.org/1999/02/22-rdf-syntax-ns#">
   <cc:Work>
    <dc:type rdf:resource="http://purl.org/dc/dcmitype/StillImage"/>
    <dc:date>2021-07-05T15:43:53.624787</dc:date>
    <dc:format>image/svg+xml</dc:format>
    <dc:creator>
     <cc:Agent>
      <dc:title>Matplotlib v3.3.2, https://matplotlib.org/</dc:title>
     </cc:Agent>
    </dc:creator>
   </cc:Work>
  </rdf:RDF>
 </metadata>
 <defs>
  <style type="text/css">*{stroke-linecap:butt;stroke-linejoin:round;}</style>
 </defs>
 <g id="figure_1">
  <g id="patch_1">
   <path d="M -0 440.746375 
L 544.06375 440.746375 
L 544.06375 0 
L -0 0 
z
" style="fill:#ffffff;"/>
  </g>
  <g id="axes_1">
   <g id="patch_2">
    <path d="M 114.94375 338.112 
L 472.06375 338.112 
L 472.06375 72 
L 114.94375 72 
z
" style="fill:#ffffff;"/>
   </g>
   <g id="matplotlib.axis_1">
    <g id="xtick_1">
     <g id="line2d_1">
      <defs>
       <path d="M 0 0 
L 0 3.5 
" id="md1951e2aba" style="stroke:#000000;stroke-width:0.8;"/>
      </defs>
      <g>
       <use style="stroke:#000000;stroke-width:0.8;" x="131.176477" xlink:href="#md1951e2aba" y="338.112"/>
      </g>
     </g>
     <g id="text_1">
      <!-- 0 -->
      <g transform="translate(127.995227 352.710438)scale(0.1 -0.1)">
       <defs>
        <path d="M 31.78125 66.40625 
Q 24.171875 66.40625 20.328125 58.90625 
Q 16.5 51.421875 16.5 36.375 
Q 16.5 21.390625 20.328125 13.890625 
Q 24.171875 6.390625 31.78125 6.390625 
Q 39.453125 6.390625 43.28125 13.890625 
Q 47.125 21.390625 47.125 36.375 
Q 47.125 51.421875 43.28125 58.90625 
Q 39.453125 66.40625 31.78125 66.40625 
z
M 31.78125 74.21875 
Q 44.046875 74.21875 50.515625 64.515625 
Q 56.984375 54.828125 56.984375 36.375 
Q 56.984375 17.96875 50.515625 8.265625 
Q 44.046875 -1.421875 31.78125 -1.421875 
Q 19.53125 -1.421875 13.0625 8.265625 
Q 6.59375 17.96875 6.59375 36.375 
Q 6.59375 54.828125 13.0625 64.515625 
Q 19.53125 74.21875 31.78125 74.21875 
z
" id="DejaVuSans-48"/>
       </defs>
       <use xlink:href="#DejaVuSans-48"/>
      </g>
     </g>
    </g>
    <g id="xtick_2">
     <g id="line2d_2">
      <g>
       <use style="stroke:#000000;stroke-width:0.8;" x="174.46375" xlink:href="#md1951e2aba" y="338.112"/>
      </g>
     </g>
     <g id="text_2">
      <!-- 2 -->
      <g transform="translate(171.2825 352.710438)scale(0.1 -0.1)">
       <defs>
        <path d="M 19.1875 8.296875 
L 53.609375 8.296875 
L 53.609375 0 
L 7.328125 0 
L 7.328125 8.296875 
Q 12.9375 14.109375 22.625 23.890625 
Q 32.328125 33.6875 34.8125 36.53125 
Q 39.546875 41.84375 41.421875 45.53125 
Q 43.3125 49.21875 43.3125 52.78125 
Q 43.3125 58.59375 39.234375 62.25 
Q 35.15625 65.921875 28.609375 65.921875 
Q 23.96875 65.921875 18.8125 64.3125 
Q 13.671875 62.703125 7.8125 59.421875 
L 7.8125 69.390625 
Q 13.765625 71.78125 18.9375 73 
Q 24.125 74.21875 28.421875 74.21875 
Q 39.75 74.21875 46.484375 68.546875 
Q 53.21875 62.890625 53.21875 53.421875 
Q 53.21875 48.921875 51.53125 44.890625 
Q 49.859375 40.875 45.40625 35.40625 
Q 44.1875 33.984375 37.640625 27.21875 
Q 31.109375 20.453125 19.1875 8.296875 
z
" id="DejaVuSans-50"/>
       </defs>
       <use xlink:href="#DejaVuSans-50"/>
      </g>
     </g>
    </g>
    <g id="xtick_3">
     <g id="line2d_3">
      <g>
       <use style="stroke:#000000;stroke-width:0.8;" x="217.751023" xlink:href="#md1951e2aba" y="338.112"/>
      </g>
     </g>
     <g id="text_3">
      <!-- 4 -->
      <g transform="translate(214.569773 352.710438)scale(0.1 -0.1)">
       <defs>
        <path d="M 37.796875 64.3125 
L 12.890625 25.390625 
L 37.796875 25.390625 
z
M 35.203125 72.90625 
L 47.609375 72.90625 
L 47.609375 25.390625 
L 58.015625 25.390625 
L 58.015625 17.1875 
L 47.609375 17.1875 
L 47.609375 0 
L 37.796875 0 
L 37.796875 17.1875 
L 4.890625 17.1875 
L 4.890625 26.703125 
z
" id="DejaVuSans-52"/>
       </defs>
       <use xlink:href="#DejaVuSans-52"/>
      </g>
     </g>
    </g>
    <g id="xtick_4">
     <g id="line2d_4">
      <g>
       <use style="stroke:#000000;stroke-width:0.8;" x="261.038295" xlink:href="#md1951e2aba" y="338.112"/>
      </g>
     </g>
     <g id="text_4">
      <!-- 6 -->
      <g transform="translate(257.857045 352.710438)scale(0.1 -0.1)">
       <defs>
        <path d="M 33.015625 40.375 
Q 26.375 40.375 22.484375 35.828125 
Q 18.609375 31.296875 18.609375 23.390625 
Q 18.609375 15.53125 22.484375 10.953125 
Q 26.375 6.390625 33.015625 6.390625 
Q 39.65625 6.390625 43.53125 10.953125 
Q 47.40625 15.53125 47.40625 23.390625 
Q 47.40625 31.296875 43.53125 35.828125 
Q 39.65625 40.375 33.015625 40.375 
z
M 52.59375 71.296875 
L 52.59375 62.3125 
Q 48.875 64.0625 45.09375 64.984375 
Q 41.3125 65.921875 37.59375 65.921875 
Q 27.828125 65.921875 22.671875 59.328125 
Q 17.53125 52.734375 16.796875 39.40625 
Q 19.671875 43.65625 24.015625 45.921875 
Q 28.375 48.1875 33.59375 48.1875 
Q 44.578125 48.1875 50.953125 41.515625 
Q 57.328125 34.859375 57.328125 23.390625 
Q 57.328125 12.15625 50.6875 5.359375 
Q 44.046875 -1.421875 33.015625 -1.421875 
Q 20.359375 -1.421875 13.671875 8.265625 
Q 6.984375 17.96875 6.984375 36.375 
Q 6.984375 53.65625 15.1875 63.9375 
Q 23.390625 74.21875 37.203125 74.21875 
Q 40.921875 74.21875 44.703125 73.484375 
Q 48.484375 72.75 52.59375 71.296875 
z
" id="DejaVuSans-54"/>
       </defs>
       <use xlink:href="#DejaVuSans-54"/>
      </g>
     </g>
    </g>
    <g id="xtick_5">
     <g id="line2d_5">
      <g>
       <use style="stroke:#000000;stroke-width:0.8;" x="304.325568" xlink:href="#md1951e2aba" y="338.112"/>
      </g>
     </g>
     <g id="text_5">
      <!-- 8 -->
      <g transform="translate(301.144318 352.710438)scale(0.1 -0.1)">
       <defs>
        <path d="M 31.78125 34.625 
Q 24.75 34.625 20.71875 30.859375 
Q 16.703125 27.09375 16.703125 20.515625 
Q 16.703125 13.921875 20.71875 10.15625 
Q 24.75 6.390625 31.78125 6.390625 
Q 38.8125 6.390625 42.859375 10.171875 
Q 46.921875 13.96875 46.921875 20.515625 
Q 46.921875 27.09375 42.890625 30.859375 
Q 38.875 34.625 31.78125 34.625 
z
M 21.921875 38.8125 
Q 15.578125 40.375 12.03125 44.71875 
Q 8.5 49.078125 8.5 55.328125 
Q 8.5 64.0625 14.71875 69.140625 
Q 20.953125 74.21875 31.78125 74.21875 
Q 42.671875 74.21875 48.875 69.140625 
Q 55.078125 64.0625 55.078125 55.328125 
Q 55.078125 49.078125 51.53125 44.71875 
Q 48 40.375 41.703125 38.8125 
Q 48.828125 37.15625 52.796875 32.3125 
Q 56.78125 27.484375 56.78125 20.515625 
Q 56.78125 9.90625 50.3125 4.234375 
Q 43.84375 -1.421875 31.78125 -1.421875 
Q 19.734375 -1.421875 13.25 4.234375 
Q 6.78125 9.90625 6.78125 20.515625 
Q 6.78125 27.484375 10.78125 32.3125 
Q 14.796875 37.15625 21.921875 38.8125 
z
M 18.3125 54.390625 
Q 18.3125 48.734375 21.84375 45.5625 
Q 25.390625 42.390625 31.78125 42.390625 
Q 38.140625 42.390625 41.71875 45.5625 
Q 45.3125 48.734375 45.3125 54.390625 
Q 45.3125 60.0625 41.71875 63.234375 
Q 38.140625 66.40625 31.78125 66.40625 
Q 25.390625 66.40625 21.84375 63.234375 
Q 18.3125 60.0625 18.3125 54.390625 
z
" id="DejaVuSans-56"/>
       </defs>
       <use xlink:href="#DejaVuSans-56"/>
      </g>
     </g>
    </g>
    <g id="xtick_6">
     <g id="line2d_6">
      <g>
       <use style="stroke:#000000;stroke-width:0.8;" x="347.612841" xlink:href="#md1951e2aba" y="338.112"/>
      </g>
     </g>
     <g id="text_6">
      <!-- 10 -->
      <g transform="translate(341.250341 352.710438)scale(0.1 -0.1)">
       <defs>
        <path d="M 12.40625 8.296875 
L 28.515625 8.296875 
L 28.515625 63.921875 
L 10.984375 60.40625 
L 10.984375 69.390625 
L 28.421875 72.90625 
L 38.28125 72.90625 
L 38.28125 8.296875 
L 54.390625 8.296875 
L 54.390625 0 
L 12.40625 0 
z
" id="DejaVuSans-49"/>
       </defs>
       <use xlink:href="#DejaVuSans-49"/>
       <use x="63.623047" xlink:href="#DejaVuSans-48"/>
      </g>
     </g>
    </g>
    <g id="xtick_7">
     <g id="line2d_7">
      <g>
       <use style="stroke:#000000;stroke-width:0.8;" x="390.900114" xlink:href="#md1951e2aba" y="338.112"/>
      </g>
     </g>
     <g id="text_7">
      <!-- 12 -->
      <g transform="translate(384.537614 352.710438)scale(0.1 -0.1)">
       <use xlink:href="#DejaVuSans-49"/>
       <use x="63.623047" xlink:href="#DejaVuSans-50"/>
      </g>
     </g>
    </g>
    <g id="xtick_8">
     <g id="line2d_8">
      <g>
       <use style="stroke:#000000;stroke-width:0.8;" x="434.187386" xlink:href="#md1951e2aba" y="338.112"/>
      </g>
     </g>
     <g id="text_8">
      <!-- 14 -->
      <g transform="translate(427.824886 352.710438)scale(0.1 -0.1)">
       <use xlink:href="#DejaVuSans-49"/>
       <use x="63.623047" xlink:href="#DejaVuSans-52"/>
      </g>
     </g>
    </g>
    <g id="text_9">
     <!-- sensing_radius -->
     <g transform="translate(256.360781 366.388563)scale(0.1 -0.1)">
      <defs>
       <path d="M 44.28125 53.078125 
L 44.28125 44.578125 
Q 40.484375 46.53125 36.375 47.5 
Q 32.28125 48.484375 27.875 48.484375 
Q 21.1875 48.484375 17.84375 46.4375 
Q 14.5 44.390625 14.5 40.28125 
Q 14.5 37.15625 16.890625 35.375 
Q 19.28125 33.59375 26.515625 31.984375 
L 29.59375 31.296875 
Q 39.15625 29.25 43.1875 25.515625 
Q 47.21875 21.78125 47.21875 15.09375 
Q 47.21875 7.46875 41.1875 3.015625 
Q 35.15625 -1.421875 24.609375 -1.421875 
Q 20.21875 -1.421875 15.453125 -0.5625 
Q 10.6875 0.296875 5.421875 2 
L 5.421875 11.28125 
Q 10.40625 8.6875 15.234375 7.390625 
Q 20.0625 6.109375 24.8125 6.109375 
Q 31.15625 6.109375 34.5625 8.28125 
Q 37.984375 10.453125 37.984375 14.40625 
Q 37.984375 18.0625 35.515625 20.015625 
Q 33.0625 21.96875 24.703125 23.78125 
L 21.578125 24.515625 
Q 13.234375 26.265625 9.515625 29.90625 
Q 5.8125 33.546875 5.8125 39.890625 
Q 5.8125 47.609375 11.28125 51.796875 
Q 16.75 56 26.8125 56 
Q 31.78125 56 36.171875 55.265625 
Q 40.578125 54.546875 44.28125 53.078125 
z
" id="DejaVuSans-115"/>
       <path d="M 56.203125 29.59375 
L 56.203125 25.203125 
L 14.890625 25.203125 
Q 15.484375 15.921875 20.484375 11.0625 
Q 25.484375 6.203125 34.421875 6.203125 
Q 39.59375 6.203125 44.453125 7.46875 
Q 49.3125 8.734375 54.109375 11.28125 
L 54.109375 2.78125 
Q 49.265625 0.734375 44.1875 -0.34375 
Q 39.109375 -1.421875 33.890625 -1.421875 
Q 20.796875 -1.421875 13.15625 6.1875 
Q 5.515625 13.8125 5.515625 26.8125 
Q 5.515625 40.234375 12.765625 48.109375 
Q 20.015625 56 32.328125 56 
Q 43.359375 56 49.78125 48.890625 
Q 56.203125 41.796875 56.203125 29.59375 
z
M 47.21875 32.234375 
Q 47.125 39.59375 43.09375 43.984375 
Q 39.0625 48.390625 32.421875 48.390625 
Q 24.90625 48.390625 20.390625 44.140625 
Q 15.875 39.890625 15.1875 32.171875 
z
" id="DejaVuSans-101"/>
       <path d="M 54.890625 33.015625 
L 54.890625 0 
L 45.90625 0 
L 45.90625 32.71875 
Q 45.90625 40.484375 42.875 44.328125 
Q 39.84375 48.1875 33.796875 48.1875 
Q 26.515625 48.1875 22.3125 43.546875 
Q 18.109375 38.921875 18.109375 30.90625 
L 18.109375 0 
L 9.078125 0 
L 9.078125 54.6875 
L 18.109375 54.6875 
L 18.109375 46.1875 
Q 21.34375 51.125 25.703125 53.5625 
Q 30.078125 56 35.796875 56 
Q 45.21875 56 50.046875 50.171875 
Q 54.890625 44.34375 54.890625 33.015625 
z
" id="DejaVuSans-110"/>
       <path d="M 9.421875 54.6875 
L 18.40625 54.6875 
L 18.40625 0 
L 9.421875 0 
z
M 9.421875 75.984375 
L 18.40625 75.984375 
L 18.40625 64.59375 
L 9.421875 64.59375 
z
" id="DejaVuSans-105"/>
       <path d="M 45.40625 27.984375 
Q 45.40625 37.75 41.375 43.109375 
Q 37.359375 48.484375 30.078125 48.484375 
Q 22.859375 48.484375 18.828125 43.109375 
Q 14.796875 37.75 14.796875 27.984375 
Q 14.796875 18.265625 18.828125 12.890625 
Q 22.859375 7.515625 30.078125 7.515625 
Q 37.359375 7.515625 41.375 12.890625 
Q 45.40625 18.265625 45.40625 27.984375 
z
M 54.390625 6.78125 
Q 54.390625 -7.171875 48.1875 -13.984375 
Q 42 -20.796875 29.203125 -20.796875 
Q 24.46875 -20.796875 20.265625 -20.09375 
Q 16.0625 -19.390625 12.109375 -17.921875 
L 12.109375 -9.1875 
Q 16.0625 -11.328125 19.921875 -12.34375 
Q 23.78125 -13.375 27.78125 -13.375 
Q 36.625 -13.375 41.015625 -8.765625 
Q 45.40625 -4.15625 45.40625 5.171875 
L 45.40625 9.625 
Q 42.625 4.78125 38.28125 2.390625 
Q 33.9375 0 27.875 0 
Q 17.828125 0 11.671875 7.65625 
Q 5.515625 15.328125 5.515625 27.984375 
Q 5.515625 40.671875 11.671875 48.328125 
Q 17.828125 56 27.875 56 
Q 33.9375 56 38.28125 53.609375 
Q 42.625 51.21875 45.40625 46.390625 
L 45.40625 54.6875 
L 54.390625 54.6875 
z
" id="DejaVuSans-103"/>
       <path d="M 50.984375 -16.609375 
L 50.984375 -23.578125 
L -0.984375 -23.578125 
L -0.984375 -16.609375 
z
" id="DejaVuSans-95"/>
       <path d="M 41.109375 46.296875 
Q 39.59375 47.171875 37.8125 47.578125 
Q 36.03125 48 33.890625 48 
Q 26.265625 48 22.1875 43.046875 
Q 18.109375 38.09375 18.109375 28.8125 
L 18.109375 0 
L 9.078125 0 
L 9.078125 54.6875 
L 18.109375 54.6875 
L 18.109375 46.1875 
Q 20.953125 51.171875 25.484375 53.578125 
Q 30.03125 56 36.53125 56 
Q 37.453125 56 38.578125 55.875 
Q 39.703125 55.765625 41.0625 55.515625 
z
" id="DejaVuSans-114"/>
       <path d="M 34.28125 27.484375 
Q 23.390625 27.484375 19.1875 25 
Q 14.984375 22.515625 14.984375 16.5 
Q 14.984375 11.71875 18.140625 8.90625 
Q 21.296875 6.109375 26.703125 6.109375 
Q 34.1875 6.109375 38.703125 11.40625 
Q 43.21875 16.703125 43.21875 25.484375 
L 43.21875 27.484375 
z
M 52.203125 31.203125 
L 52.203125 0 
L 43.21875 0 
L 43.21875 8.296875 
Q 40.140625 3.328125 35.546875 0.953125 
Q 30.953125 -1.421875 24.3125 -1.421875 
Q 15.921875 -1.421875 10.953125 3.296875 
Q 6 8.015625 6 15.921875 
Q 6 25.140625 12.171875 29.828125 
Q 18.359375 34.515625 30.609375 34.515625 
L 43.21875 34.515625 
L 43.21875 35.40625 
Q 43.21875 41.609375 39.140625 45 
Q 35.0625 48.390625 27.6875 48.390625 
Q 23 48.390625 18.546875 47.265625 
Q 14.109375 46.140625 10.015625 43.890625 
L 10.015625 52.203125 
Q 14.9375 54.109375 19.578125 55.046875 
Q 24.21875 56 28.609375 56 
Q 40.484375 56 46.34375 49.84375 
Q 52.203125 43.703125 52.203125 31.203125 
z
" id="DejaVuSans-97"/>
       <path d="M 45.40625 46.390625 
L 45.40625 75.984375 
L 54.390625 75.984375 
L 54.390625 0 
L 45.40625 0 
L 45.40625 8.203125 
Q 42.578125 3.328125 38.25 0.953125 
Q 33.9375 -1.421875 27.875 -1.421875 
Q 17.96875 -1.421875 11.734375 6.484375 
Q 5.515625 14.40625 5.515625 27.296875 
Q 5.515625 40.1875 11.734375 48.09375 
Q 17.96875 56 27.875 56 
Q 33.9375 56 38.25 53.625 
Q 42.578125 51.265625 45.40625 46.390625 
z
M 14.796875 27.296875 
Q 14.796875 17.390625 18.875 11.75 
Q 22.953125 6.109375 30.078125 6.109375 
Q 37.203125 6.109375 41.296875 11.75 
Q 45.40625 17.390625 45.40625 27.296875 
Q 45.40625 37.203125 41.296875 42.84375 
Q 37.203125 48.484375 30.078125 48.484375 
Q 22.953125 48.484375 18.875 42.84375 
Q 14.796875 37.203125 14.796875 27.296875 
z
" id="DejaVuSans-100"/>
       <path d="M 8.5 21.578125 
L 8.5 54.6875 
L 17.484375 54.6875 
L 17.484375 21.921875 
Q 17.484375 14.15625 20.5 10.265625 
Q 23.53125 6.390625 29.59375 6.390625 
Q 36.859375 6.390625 41.078125 11.03125 
Q 45.3125 15.671875 45.3125 23.6875 
L 45.3125 54.6875 
L 54.296875 54.6875 
L 54.296875 0 
L 45.3125 0 
L 45.3125 8.40625 
Q 42.046875 3.421875 37.71875 1 
Q 33.40625 -1.421875 27.6875 -1.421875 
Q 18.265625 -1.421875 13.375 4.4375 
Q 8.5 10.296875 8.5 21.578125 
z
M 31.109375 56 
z
" id="DejaVuSans-117"/>
      </defs>
      <use xlink:href="#DejaVuSans-115"/>
      <use x="52.099609" xlink:href="#DejaVuSans-101"/>
      <use x="113.623047" xlink:href="#DejaVuSans-110"/>
      <use x="177.001953" xlink:href="#DejaVuSans-115"/>
      <use x="229.101562" xlink:href="#DejaVuSans-105"/>
      <use x="256.884766" xlink:href="#DejaVuSans-110"/>
      <use x="320.263672" xlink:href="#DejaVuSans-103"/>
      <use x="383.740234" xlink:href="#DejaVuSans-95"/>
      <use x="433.740234" xlink:href="#DejaVuSans-114"/>
      <use x="474.853516" xlink:href="#DejaVuSans-97"/>
      <use x="536.132812" xlink:href="#DejaVuSans-100"/>
      <use x="599.609375" xlink:href="#DejaVuSans-105"/>
      <use x="627.392578" xlink:href="#DejaVuSans-117"/>
      <use x="690.771484" xlink:href="#DejaVuSans-115"/>
     </g>
    </g>
   </g>
   <g id="matplotlib.axis_2">
    <g id="ytick_1">
     <g id="line2d_9">
      <defs>
       <path d="M 0 0 
L -3.5 0 
" id="m55951a6963" style="stroke:#000000;stroke-width:0.8;"/>
      </defs>
      <g>
       <use style="stroke:#000000;stroke-width:0.8;" x="114.94375" xlink:href="#m55951a6963" y="304.430774"/>
      </g>
     </g>
     <g id="text_10">
      <!-- 9.0 -->
      <g transform="translate(92.040625 308.229993)scale(0.1 -0.1)">
       <defs>
        <path d="M 10.984375 1.515625 
L 10.984375 10.5 
Q 14.703125 8.734375 18.5 7.8125 
Q 22.3125 6.890625 25.984375 6.890625 
Q 35.75 6.890625 40.890625 13.453125 
Q 46.046875 20.015625 46.78125 33.40625 
Q 43.953125 29.203125 39.59375 26.953125 
Q 35.25 24.703125 29.984375 24.703125 
Q 19.046875 24.703125 12.671875 31.3125 
Q 6.296875 37.9375 6.296875 49.421875 
Q 6.296875 60.640625 12.9375 67.421875 
Q 19.578125 74.21875 30.609375 74.21875 
Q 43.265625 74.21875 49.921875 64.515625 
Q 56.59375 54.828125 56.59375 36.375 
Q 56.59375 19.140625 48.40625 8.859375 
Q 40.234375 -1.421875 26.421875 -1.421875 
Q 22.703125 -1.421875 18.890625 -0.6875 
Q 15.09375 0.046875 10.984375 1.515625 
z
M 30.609375 32.421875 
Q 37.25 32.421875 41.125 36.953125 
Q 45.015625 41.5 45.015625 49.421875 
Q 45.015625 57.28125 41.125 61.84375 
Q 37.25 66.40625 30.609375 66.40625 
Q 23.96875 66.40625 20.09375 61.84375 
Q 16.21875 57.28125 16.21875 49.421875 
Q 16.21875 41.5 20.09375 36.953125 
Q 23.96875 32.421875 30.609375 32.421875 
z
" id="DejaVuSans-57"/>
        <path d="M 10.6875 12.40625 
L 21 12.40625 
L 21 0 
L 10.6875 0 
z
" id="DejaVuSans-46"/>
       </defs>
       <use xlink:href="#DejaVuSans-57"/>
       <use x="63.623047" xlink:href="#DejaVuSans-46"/>
       <use x="95.410156" xlink:href="#DejaVuSans-48"/>
      </g>
     </g>
    </g>
    <g id="ytick_2">
     <g id="line2d_10">
      <g>
       <use style="stroke:#000000;stroke-width:0.8;" x="114.94375" xlink:href="#m55951a6963" y="267.071174"/>
      </g>
     </g>
     <g id="text_11">
      <!-- 9.5 -->
      <g transform="translate(92.040625 270.870393)scale(0.1 -0.1)">
       <defs>
        <path d="M 10.796875 72.90625 
L 49.515625 72.90625 
L 49.515625 64.59375 
L 19.828125 64.59375 
L 19.828125 46.734375 
Q 21.96875 47.46875 24.109375 47.828125 
Q 26.265625 48.1875 28.421875 48.1875 
Q 40.625 48.1875 47.75 41.5 
Q 54.890625 34.8125 54.890625 23.390625 
Q 54.890625 11.625 47.5625 5.09375 
Q 40.234375 -1.421875 26.90625 -1.421875 
Q 22.3125 -1.421875 17.546875 -0.640625 
Q 12.796875 0.140625 7.71875 1.703125 
L 7.71875 11.625 
Q 12.109375 9.234375 16.796875 8.0625 
Q 21.484375 6.890625 26.703125 6.890625 
Q 35.15625 6.890625 40.078125 11.328125 
Q 45.015625 15.765625 45.015625 23.390625 
Q 45.015625 31 40.078125 35.4375 
Q 35.15625 39.890625 26.703125 39.890625 
Q 22.75 39.890625 18.8125 39.015625 
Q 14.890625 38.140625 10.796875 36.28125 
z
" id="DejaVuSans-53"/>
       </defs>
       <use xlink:href="#DejaVuSans-57"/>
       <use x="63.623047" xlink:href="#DejaVuSans-46"/>
       <use x="95.410156" xlink:href="#DejaVuSans-53"/>
      </g>
     </g>
    </g>
    <g id="ytick_3">
     <g id="line2d_11">
      <g>
       <use style="stroke:#000000;stroke-width:0.8;" x="114.94375" xlink:href="#m55951a6963" y="229.711575"/>
      </g>
     </g>
     <g id="text_12">
      <!-- 10.0 -->
      <g transform="translate(85.678125 233.510793)scale(0.1 -0.1)">
       <use xlink:href="#DejaVuSans-49"/>
       <use x="63.623047" xlink:href="#DejaVuSans-48"/>
       <use x="127.246094" xlink:href="#DejaVuSans-46"/>
       <use x="159.033203" xlink:href="#DejaVuSans-48"/>
      </g>
     </g>
    </g>
    <g id="ytick_4">
     <g id="line2d_12">
      <g>
       <use style="stroke:#000000;stroke-width:0.8;" x="114.94375" xlink:href="#m55951a6963" y="192.351975"/>
      </g>
     </g>
     <g id="text_13">
      <!-- 10.5 -->
      <g transform="translate(85.678125 196.151194)scale(0.1 -0.1)">
       <use xlink:href="#DejaVuSans-49"/>
       <use x="63.623047" xlink:href="#DejaVuSans-48"/>
       <use x="127.246094" xlink:href="#DejaVuSans-46"/>
       <use x="159.033203" xlink:href="#DejaVuSans-53"/>
      </g>
     </g>
    </g>
    <g id="ytick_5">
     <g id="line2d_13">
      <g>
       <use style="stroke:#000000;stroke-width:0.8;" x="114.94375" xlink:href="#m55951a6963" y="154.992375"/>
      </g>
     </g>
     <g id="text_14">
      <!-- 11.0 -->
      <g transform="translate(85.678125 158.791594)scale(0.1 -0.1)">
       <use xlink:href="#DejaVuSans-49"/>
       <use x="63.623047" xlink:href="#DejaVuSans-49"/>
       <use x="127.246094" xlink:href="#DejaVuSans-46"/>
       <use x="159.033203" xlink:href="#DejaVuSans-48"/>
      </g>
     </g>
    </g>
    <g id="ytick_6">
     <g id="line2d_14">
      <g>
       <use style="stroke:#000000;stroke-width:0.8;" x="114.94375" xlink:href="#m55951a6963" y="117.632776"/>
      </g>
     </g>
     <g id="text_15">
      <!-- 11.5 -->
      <g transform="translate(85.678125 121.431994)scale(0.1 -0.1)">
       <use xlink:href="#DejaVuSans-49"/>
       <use x="63.623047" xlink:href="#DejaVuSans-49"/>
       <use x="127.246094" xlink:href="#DejaVuSans-46"/>
       <use x="159.033203" xlink:href="#DejaVuSans-53"/>
      </g>
     </g>
    </g>
    <g id="ytick_7">
     <g id="line2d_15">
      <g>
       <use style="stroke:#000000;stroke-width:0.8;" x="114.94375" xlink:href="#m55951a6963" y="80.273176"/>
      </g>
     </g>
     <g id="text_16">
      <!-- 12.0 -->
      <g transform="translate(85.678125 84.072395)scale(0.1 -0.1)">
       <use xlink:href="#DejaVuSans-49"/>
       <use x="63.623047" xlink:href="#DejaVuSans-50"/>
       <use x="127.246094" xlink:href="#DejaVuSans-46"/>
       <use x="159.033203" xlink:href="#DejaVuSans-48"/>
      </g>
     </g>
    </g>
    <g id="text_17">
     <!-- path length/exit size [] -->
     <g transform="translate(79.598438 261.706)rotate(-90)scale(0.1 -0.1)">
      <defs>
       <path d="M 18.109375 8.203125 
L 18.109375 -20.796875 
L 9.078125 -20.796875 
L 9.078125 54.6875 
L 18.109375 54.6875 
L 18.109375 46.390625 
Q 20.953125 51.265625 25.265625 53.625 
Q 29.59375 56 35.59375 56 
Q 45.5625 56 51.78125 48.09375 
Q 58.015625 40.1875 58.015625 27.296875 
Q 58.015625 14.40625 51.78125 6.484375 
Q 45.5625 -1.421875 35.59375 -1.421875 
Q 29.59375 -1.421875 25.265625 0.953125 
Q 20.953125 3.328125 18.109375 8.203125 
z
M 48.6875 27.296875 
Q 48.6875 37.203125 44.609375 42.84375 
Q 40.53125 48.484375 33.40625 48.484375 
Q 26.265625 48.484375 22.1875 42.84375 
Q 18.109375 37.203125 18.109375 27.296875 
Q 18.109375 17.390625 22.1875 11.75 
Q 26.265625 6.109375 33.40625 6.109375 
Q 40.53125 6.109375 44.609375 11.75 
Q 48.6875 17.390625 48.6875 27.296875 
z
" id="DejaVuSans-112"/>
       <path d="M 18.3125 70.21875 
L 18.3125 54.6875 
L 36.8125 54.6875 
L 36.8125 47.703125 
L 18.3125 47.703125 
L 18.3125 18.015625 
Q 18.3125 11.328125 20.140625 9.421875 
Q 21.96875 7.515625 27.59375 7.515625 
L 36.8125 7.515625 
L 36.8125 0 
L 27.59375 0 
Q 17.1875 0 13.234375 3.875 
Q 9.28125 7.765625 9.28125 18.015625 
L 9.28125 47.703125 
L 2.6875 47.703125 
L 2.6875 54.6875 
L 9.28125 54.6875 
L 9.28125 70.21875 
z
" id="DejaVuSans-116"/>
       <path d="M 54.890625 33.015625 
L 54.890625 0 
L 45.90625 0 
L 45.90625 32.71875 
Q 45.90625 40.484375 42.875 44.328125 
Q 39.84375 48.1875 33.796875 48.1875 
Q 26.515625 48.1875 22.3125 43.546875 
Q 18.109375 38.921875 18.109375 30.90625 
L 18.109375 0 
L 9.078125 0 
L 9.078125 75.984375 
L 18.109375 75.984375 
L 18.109375 46.1875 
Q 21.34375 51.125 25.703125 53.5625 
Q 30.078125 56 35.796875 56 
Q 45.21875 56 50.046875 50.171875 
Q 54.890625 44.34375 54.890625 33.015625 
z
" id="DejaVuSans-104"/>
       <path id="DejaVuSans-32"/>
       <path d="M 9.421875 75.984375 
L 18.40625 75.984375 
L 18.40625 0 
L 9.421875 0 
z
" id="DejaVuSans-108"/>
       <path d="M 25.390625 72.90625 
L 33.6875 72.90625 
L 8.296875 -9.28125 
L 0 -9.28125 
z
" id="DejaVuSans-47"/>
       <path d="M 54.890625 54.6875 
L 35.109375 28.078125 
L 55.90625 0 
L 45.3125 0 
L 29.390625 21.484375 
L 13.484375 0 
L 2.875 0 
L 24.125 28.609375 
L 4.6875 54.6875 
L 15.28125 54.6875 
L 29.78125 35.203125 
L 44.28125 54.6875 
z
" id="DejaVuSans-120"/>
       <path d="M 5.515625 54.6875 
L 48.1875 54.6875 
L 48.1875 46.484375 
L 14.40625 7.171875 
L 48.1875 7.171875 
L 48.1875 0 
L 4.296875 0 
L 4.296875 8.203125 
L 38.09375 47.515625 
L 5.515625 47.515625 
z
" id="DejaVuSans-122"/>
       <path d="M 8.59375 75.984375 
L 29.296875 75.984375 
L 29.296875 69 
L 17.578125 69 
L 17.578125 -6.203125 
L 29.296875 -6.203125 
L 29.296875 -13.1875 
L 8.59375 -13.1875 
z
" id="DejaVuSans-91"/>
       <path d="M 30.421875 75.984375 
L 30.421875 -13.1875 
L 9.71875 -13.1875 
L 9.71875 -6.203125 
L 21.390625 -6.203125 
L 21.390625 69 
L 9.71875 69 
L 9.71875 75.984375 
z
" id="DejaVuSans-93"/>
      </defs>
      <use xlink:href="#DejaVuSans-112"/>
      <use x="63.476562" xlink:href="#DejaVuSans-97"/>
      <use x="124.755859" xlink:href="#DejaVuSans-116"/>
      <use x="163.964844" xlink:href="#DejaVuSans-104"/>
      <use x="227.34375" xlink:href="#DejaVuSans-32"/>
      <use x="259.130859" xlink:href="#DejaVuSans-108"/>
      <use x="286.914062" xlink:href="#DejaVuSans-101"/>
      <use x="348.4375" xlink:href="#DejaVuSans-110"/>
      <use x="411.816406" xlink:href="#DejaVuSans-103"/>
      <use x="475.292969" xlink:href="#DejaVuSans-116"/>
      <use x="514.501953" xlink:href="#DejaVuSans-104"/>
      <use x="577.880859" xlink:href="#DejaVuSans-47"/>
      <use x="611.572266" xlink:href="#DejaVuSans-101"/>
      <use x="671.345703" xlink:href="#DejaVuSans-120"/>
      <use x="730.525391" xlink:href="#DejaVuSans-105"/>
      <use x="758.308594" xlink:href="#DejaVuSans-116"/>
      <use x="797.517578" xlink:href="#DejaVuSans-32"/>
      <use x="829.304688" xlink:href="#DejaVuSans-115"/>
      <use x="881.404297" xlink:href="#DejaVuSans-105"/>
      <use x="909.1875" xlink:href="#DejaVuSans-122"/>
      <use x="961.677734" xlink:href="#DejaVuSans-101"/>
      <use x="1023.201172" xlink:href="#DejaVuSans-32"/>
      <use x="1054.988281" xlink:href="#DejaVuSans-91"/>
      <use x="1094.001953" xlink:href="#DejaVuSans-93"/>
     </g>
    </g>
   </g>
   <g id="line2d_16">
    <path clip-path="url(#pc24bc930bf)" d="M 152.820114 205.835598 
L 174.46375 138.261927 
L 196.107386 208.066703 
L 217.751023 212.671956 
L 239.394659 137.044506 
L 261.038295 213.616887 
L 282.681932 215.448032 
L 304.325568 305.631354 
L 325.969205 168.255958 
L 347.612841 167.512257 
L 369.256477 220.257024 
L 390.900114 253.638886 
L 412.54375 166.834798 
L 434.187386 217.210966 
L 455.831023 178.347661 
" style="fill:none;stroke:#000080;stroke-linecap:square;stroke-width:1.5;"/>
   </g>
   <g id="line2d_17">
    <path clip-path="url(#pc24bc930bf)" d="M 131.176477 215.92676 
L 152.820114 154.782512 
L 174.46375 167.782238 
L 196.107386 245.243873 
L 217.751023 162.163842 
L 239.394659 146.591238 
L 261.038295 170.625099 
L 282.681932 218.362144 
L 304.325568 229.861942 
L 325.969205 152.347128 
L 347.612841 209.157185 
L 369.256477 208.000459 
L 390.900114 216.533508 
L 412.54375 211.454534 
L 434.187386 211.795767 
L 455.831023 195.000193 
" style="fill:none;stroke:#0000cd;stroke-linecap:square;stroke-width:1.5;"/>
   </g>
   <g id="line2d_18">
    <path clip-path="url(#pc24bc930bf)" d="M 131.176477 207.460496 
L 152.820114 207.256758 
L 174.46375 149.499801 
L 196.107386 199.809184 
L 217.751023 198.72174 
L 239.394659 247.138213 
L 261.038295 202.98773 
L 282.681932 166.091097 
L 304.325568 257.428646 
L 325.969205 162.571318 
L 347.612841 198.999239 
L 369.256477 199.065483 
L 390.900114 151.670211 
L 412.54375 190.670469 
L 434.187386 177.736447 
L 455.831023 168.663435 
" style="fill:none;stroke:#0008ff;stroke-linecap:square;stroke-width:1.5;"/>
   </g>
   <g id="line2d_19">
    <path clip-path="url(#pc24bc930bf)" d="M 131.176477 184.36155 
L 152.820114 247.604416 
L 174.46375 120.931938 
L 196.107386 181.189981 
L 217.751023 180.105047 
L 239.394659 166.498573 
L 261.038295 215.315545 
L 282.681932 109.826551 
L 304.325568 109.827092 
L 325.969205 218.092162 
L 347.612841 140.426789 
L 369.256477 192.761571 
L 390.900114 212.335731 
L 412.54375 170.895081 
L 434.187386 181.459963 
L 455.831023 202.577744 
" style="fill:none;stroke:#004cff;stroke-linecap:square;stroke-width:1.5;"/>
   </g>
   <g id="line2d_20">
    <path clip-path="url(#pc24bc930bf)" d="M 131.176477 263.850011 
L 152.820114 174.894127 
L 174.46375 230.480673 
L 196.107386 115.445488 
L 217.751023 213.828682 
L 239.394659 154.98571 
L 261.038295 226.47411 
L 282.681932 205.769354 
L 304.325568 172.861212 
L 325.969205 217.954127 
L 347.612841 214.908069 
L 369.256477 222.967397 
L 390.900114 172.728724 
L 412.54375 190.866691 
L 434.187386 148.485577 
L 455.831023 237.454527 
" style="fill:none;stroke:#0090ff;stroke-linecap:square;stroke-width:1.5;"/>
   </g>
   <g id="line2d_21">
    <path clip-path="url(#pc24bc930bf)" d="M 131.176477 241.856042 
L 152.820114 177.939644 
L 174.46375 163.854984 
L 196.107386 239.966169 
L 217.751023 167.985977 
L 239.394659 254.17885 
L 261.038295 163.992478 
L 282.681932 141.985984 
L 304.325568 171.236313 
L 325.969205 198.519971 
L 347.612841 214.164367 
L 369.256477 194.460229 
L 390.900114 186.268954 
L 412.54375 150.650979 
L 434.187386 161.348349 
L 455.831023 179.834524 
" style="fill:none;stroke:#00d4ff;stroke-linecap:square;stroke-width:1.5;"/>
   </g>
   <g id="line2d_22">
    <path clip-path="url(#pc24bc930bf)" d="M 131.176477 233.519215 
L 152.820114 214.5056 
L 174.46375 201.974046 
L 196.107386 214.709338 
L 217.751023 260.001525 
L 239.394659 181.393719 
L 261.038295 146.926922 
L 282.681932 203.802682 
L 304.325568 227.704597 
L 325.969205 160.808385 
L 347.612841 172.043749 
L 369.256477 196.691335 
L 390.900114 210.165321 
L 412.54375 145.498245 
L 434.187386 209.691601 
L 455.831023 142.530955 
" style="fill:none;stroke:#29ffce;stroke-linecap:square;stroke-width:1.5;"/>
   </g>
   <g id="line2d_23">
    <path clip-path="url(#pc24bc930bf)" d="M 131.176477 184.914038 
L 152.820114 188.031347 
L 174.46375 193.986509 
L 196.107386 173.604913 
L 217.751023 156.40687 
L 239.394659 184.7103 
L 261.038295 178.143923 
L 282.681932 233.191047 
L 304.325568 201.907802 
L 325.969205 194.867706 
L 347.612841 88.767497 
L 369.256477 240.093649 
L 390.900114 158.57728 
L 412.54375 288.166379 
L 434.187386 178.683887 
L 455.831023 195.886397 
" style="fill:none;stroke:#60ff97;stroke-linecap:square;stroke-width:1.5;"/>
   </g>
   <g id="line2d_24">
    <path clip-path="url(#pc24bc930bf)" d="M 131.176477 194.460229 
L 152.820114 215.381789 
L 174.46375 137.721964 
L 196.107386 202.045297 
L 217.751023 162.36758 
L 239.394659 150.177259 
L 261.038295 157.288607 
L 282.681932 153.157074 
L 304.325568 150.177259 
L 325.969205 326.016 
L 347.612841 135.689049 
L 369.256477 243.277202 
L 390.900114 223.98054 
L 412.54375 171.64379 
L 434.187386 244.894583 
L 455.831023 181.796188 
" style="fill:none;stroke:#97ff60;stroke-linecap:square;stroke-width:1.5;"/>
   </g>
   <g id="line2d_25">
    <path clip-path="url(#pc24bc930bf)" d="M 131.176477 165.953602 
L 152.820114 132.103568 
L 174.46375 187.960096 
L 196.107386 180.102537 
L 217.751023 201.907802 
L 239.394659 192.697837 
L 261.038295 236.777068 
L 282.681932 181.123738 
L 304.325568 189.651238 
L 325.969205 200.282904 
L 347.612841 105.899297 
L 369.256477 221.540689 
L 390.900114 114.019321 
L 412.54375 168.663435 
L 434.187386 213.349414 
L 455.831023 130.20314 
" style="fill:none;stroke:#ceff29;stroke-linecap:square;stroke-width:1.5;"/>
   </g>
   <g id="line2d_26">
    <path clip-path="url(#pc24bc930bf)" d="M 131.176477 200.216661 
L 152.820114 117.61035 
L 174.46375 204.077672 
L 196.107386 222.55938 
L 217.751023 207.854907 
L 239.394659 151.465932 
L 261.038295 181.314951 
L 282.681932 152.953336 
L 304.325568 138.195684 
L 325.969205 193.782771 
L 347.612841 212.473225 
L 369.256477 151.465932 
L 390.900114 225.934147 
L 412.54375 232.987309 
L 434.187386 168.05222 
L 455.831023 133.051008 
" style="fill:none;stroke:#ffe600;stroke-linecap:square;stroke-width:1.5;"/>
   </g>
   <g id="line2d_27">
    <path clip-path="url(#pc24bc930bf)" d="M 152.820114 169.137695 
L 174.46375 135.964578 
L 196.107386 235.763925 
L 217.751023 157.216815 
L 239.394659 228.652037 
L 261.038295 183.28914 
L 282.681932 194.052753 
L 304.325568 235.829628 
L 325.969205 131.354318 
L 347.612841 184.032301 
L 369.256477 147.87991 
L 390.900114 200.282904 
L 412.54375 191.887891 
L 434.187386 108.945355 
L 455.831023 100.820323 
" style="fill:none;stroke:#ffa700;stroke-linecap:square;stroke-width:1.5;"/>
   </g>
   <g id="line2d_28">
    <path clip-path="url(#pc24bc930bf)" d="M 152.820114 126.958351 
L 174.46375 141.379777 
L 196.107386 149.907277 
L 217.751023 176.788466 
L 239.394659 205.361878 
L 261.038295 235.62589 
L 282.681932 185.454002 
L 304.325568 147.734358 
L 325.969205 233.053552 
L 347.612841 188.098131 
L 369.256477 140.834266 
L 390.900114 183.900354 
L 412.54375 142.115962 
L 434.187386 204.954401 
L 455.831023 168.045244 
" style="fill:none;stroke:#ff6800;stroke-linecap:square;stroke-width:1.5;"/>
   </g>
   <g id="line2d_29">
    <path clip-path="url(#pc24bc930bf)" d="M 131.176477 238.058224 
L 152.820114 124.314221 
L 174.46375 212.809451 
L 196.107386 203.262719 
L 217.751023 154.440739 
L 239.394659 98.451723 
L 261.038295 266.289862 
L 282.681932 211.927714 
L 304.325568 229.263252 
L 325.969205 193.105313 
L 347.612841 224.657998 
L 369.256477 164.328704 
L 390.900114 156.063668 
L 412.54375 164.669937 
L 434.187386 84.096 
L 455.831023 164.873675 
" style="fill:none;stroke:#ff2900;stroke-linecap:square;stroke-width:1.5;"/>
   </g>
   <g id="line2d_30">
    <path clip-path="url(#pc24bc930bf)" d="M 152.820114 235.355908 
L 174.46375 205.020645 
L 196.107386 182.81542 
L 217.751023 143.004675 
L 239.394659 203.395206 
L 261.038295 179.295101 
L 282.681932 207.664234 
L 304.325568 186.676431 
L 325.969205 152.551407 
L 347.612841 124.314221 
L 369.256477 192.157873 
L 390.900114 189.315553 
L 412.54375 172.176236 
L 434.187386 173.53867 
L 455.831023 226.487175 
" style="fill:none;stroke:#cd0000;stroke-linecap:square;stroke-width:1.5;"/>
   </g>
   <g id="line2d_31">
    <path clip-path="url(#pc24bc930bf)" d="M 152.820114 178.683887 
L 174.46375 162.833783 
L 196.107386 119.161487 
L 217.751023 244.9021 
L 239.394659 178.821381 
L 261.038295 214.296314 
L 282.681932 201.770308 
L 304.325568 162.163842 
L 325.969205 177.196483 
L 347.612841 280.78559 
L 369.256477 215.855509 
L 390.900114 171.373808 
L 412.54375 214.564327 
L 434.187386 121.064425 
L 455.831023 229.059513 
" style="fill:none;stroke:#800000;stroke-linecap:square;stroke-width:1.5;"/>
   </g>
   <g id="patch_3">
    <path d="M 114.94375 338.112 
L 114.94375 72 
" style="fill:none;stroke:#000000;stroke-linecap:square;stroke-linejoin:miter;stroke-width:0.8;"/>
   </g>
   <g id="patch_4">
    <path d="M 472.06375 338.112 
L 472.06375 72 
" style="fill:none;stroke:#000000;stroke-linecap:square;stroke-linejoin:miter;stroke-width:0.8;"/>
   </g>
   <g id="patch_5">
    <path d="M 114.94375 338.112 
L 472.06375 338.112 
" style="fill:none;stroke:#000000;stroke-linecap:square;stroke-linejoin:miter;stroke-width:0.8;"/>
   </g>
   <g id="patch_6">
    <path d="M 114.94375 72 
L 472.06375 72 
" style="fill:none;stroke:#000000;stroke-linecap:square;stroke-linejoin:miter;stroke-width:0.8;"/>
   </g>
   <g id="legend_1">
    <g id="patch_7">
     <path d="M 121.94375 314.85 
L 210.403125 314.85 
Q 212.403125 314.85 212.403125 312.85 
L 212.403125 79 
Q 212.403125 77 210.403125 77 
L 121.94375 77 
Q 119.94375 77 119.94375 79 
L 119.94375 312.85 
Q 119.94375 314.85 121.94375 314.85 
z
" style="fill:#ffffff;opacity:0.8;stroke:#cccccc;stroke-linejoin:miter;"/>
    </g>
    <g id="line2d_32">
     <path d="M 123.94375 85.098438 
L 143.94375 85.098438 
" style="fill:none;stroke:#000080;stroke-linecap:square;stroke-width:1.5;"/>
    </g>
    <g id="line2d_33"/>
    <g id="text_18">
     <!-- dilation: 0 -->
     <g transform="translate(151.94375 88.598438)scale(0.1 -0.1)">
      <defs>
       <path d="M 30.609375 48.390625 
Q 23.390625 48.390625 19.1875 42.75 
Q 14.984375 37.109375 14.984375 27.296875 
Q 14.984375 17.484375 19.15625 11.84375 
Q 23.34375 6.203125 30.609375 6.203125 
Q 37.796875 6.203125 41.984375 11.859375 
Q 46.1875 17.53125 46.1875 27.296875 
Q 46.1875 37.015625 41.984375 42.703125 
Q 37.796875 48.390625 30.609375 48.390625 
z
M 30.609375 56 
Q 42.328125 56 49.015625 48.375 
Q 55.71875 40.765625 55.71875 27.296875 
Q 55.71875 13.875 49.015625 6.21875 
Q 42.328125 -1.421875 30.609375 -1.421875 
Q 18.84375 -1.421875 12.171875 6.21875 
Q 5.515625 13.875 5.515625 27.296875 
Q 5.515625 40.765625 12.171875 48.375 
Q 18.84375 56 30.609375 56 
z
" id="DejaVuSans-111"/>
       <path d="M 11.71875 12.40625 
L 22.015625 12.40625 
L 22.015625 0 
L 11.71875 0 
z
M 11.71875 51.703125 
L 22.015625 51.703125 
L 22.015625 39.3125 
L 11.71875 39.3125 
z
" id="DejaVuSans-58"/>
      </defs>
      <use xlink:href="#DejaVuSans-100"/>
      <use x="63.476562" xlink:href="#DejaVuSans-105"/>
      <use x="91.259766" xlink:href="#DejaVuSans-108"/>
      <use x="119.042969" xlink:href="#DejaVuSans-97"/>
      <use x="180.322266" xlink:href="#DejaVuSans-116"/>
      <use x="219.53125" xlink:href="#DejaVuSans-105"/>
      <use x="247.314453" xlink:href="#DejaVuSans-111"/>
      <use x="308.496094" xlink:href="#DejaVuSans-110"/>
      <use x="371.875" xlink:href="#DejaVuSans-58"/>
      <use x="405.566406" xlink:href="#DejaVuSans-32"/>
      <use x="437.353516" xlink:href="#DejaVuSans-48"/>
     </g>
    </g>
    <g id="line2d_34">
     <path d="M 123.94375 99.776563 
L 143.94375 99.776563 
" style="fill:none;stroke:#0000cd;stroke-linecap:square;stroke-width:1.5;"/>
    </g>
    <g id="line2d_35"/>
    <g id="text_19">
     <!-- dilation: 1 -->
     <g transform="translate(151.94375 103.276563)scale(0.1 -0.1)">
      <use xlink:href="#DejaVuSans-100"/>
      <use x="63.476562" xlink:href="#DejaVuSans-105"/>
      <use x="91.259766" xlink:href="#DejaVuSans-108"/>
      <use x="119.042969" xlink:href="#DejaVuSans-97"/>
      <use x="180.322266" xlink:href="#DejaVuSans-116"/>
      <use x="219.53125" xlink:href="#DejaVuSans-105"/>
      <use x="247.314453" xlink:href="#DejaVuSans-111"/>
      <use x="308.496094" xlink:href="#DejaVuSans-110"/>
      <use x="371.875" xlink:href="#DejaVuSans-58"/>
      <use x="405.566406" xlink:href="#DejaVuSans-32"/>
      <use x="437.353516" xlink:href="#DejaVuSans-49"/>
     </g>
    </g>
    <g id="line2d_36">
     <path d="M 123.94375 114.454688 
L 143.94375 114.454688 
" style="fill:none;stroke:#0008ff;stroke-linecap:square;stroke-width:1.5;"/>
    </g>
    <g id="line2d_37"/>
    <g id="text_20">
     <!-- dilation: 2 -->
     <g transform="translate(151.94375 117.954688)scale(0.1 -0.1)">
      <use xlink:href="#DejaVuSans-100"/>
      <use x="63.476562" xlink:href="#DejaVuSans-105"/>
      <use x="91.259766" xlink:href="#DejaVuSans-108"/>
      <use x="119.042969" xlink:href="#DejaVuSans-97"/>
      <use x="180.322266" xlink:href="#DejaVuSans-116"/>
      <use x="219.53125" xlink:href="#DejaVuSans-105"/>
      <use x="247.314453" xlink:href="#DejaVuSans-111"/>
      <use x="308.496094" xlink:href="#DejaVuSans-110"/>
      <use x="371.875" xlink:href="#DejaVuSans-58"/>
      <use x="405.566406" xlink:href="#DejaVuSans-32"/>
      <use x="437.353516" xlink:href="#DejaVuSans-50"/>
     </g>
    </g>
    <g id="line2d_38">
     <path d="M 123.94375 129.132813 
L 143.94375 129.132813 
" style="fill:none;stroke:#004cff;stroke-linecap:square;stroke-width:1.5;"/>
    </g>
    <g id="line2d_39"/>
    <g id="text_21">
     <!-- dilation: 3 -->
     <g transform="translate(151.94375 132.632813)scale(0.1 -0.1)">
      <defs>
       <path d="M 40.578125 39.3125 
Q 47.65625 37.796875 51.625 33 
Q 55.609375 28.21875 55.609375 21.1875 
Q 55.609375 10.40625 48.1875 4.484375 
Q 40.765625 -1.421875 27.09375 -1.421875 
Q 22.515625 -1.421875 17.65625 -0.515625 
Q 12.796875 0.390625 7.625 2.203125 
L 7.625 11.71875 
Q 11.71875 9.328125 16.59375 8.109375 
Q 21.484375 6.890625 26.8125 6.890625 
Q 36.078125 6.890625 40.9375 10.546875 
Q 45.796875 14.203125 45.796875 21.1875 
Q 45.796875 27.640625 41.28125 31.265625 
Q 36.765625 34.90625 28.71875 34.90625 
L 20.21875 34.90625 
L 20.21875 43.015625 
L 29.109375 43.015625 
Q 36.375 43.015625 40.234375 45.921875 
Q 44.09375 48.828125 44.09375 54.296875 
Q 44.09375 59.90625 40.109375 62.90625 
Q 36.140625 65.921875 28.71875 65.921875 
Q 24.65625 65.921875 20.015625 65.03125 
Q 15.375 64.15625 9.8125 62.3125 
L 9.8125 71.09375 
Q 15.4375 72.65625 20.34375 73.4375 
Q 25.25 74.21875 29.59375 74.21875 
Q 40.828125 74.21875 47.359375 69.109375 
Q 53.90625 64.015625 53.90625 55.328125 
Q 53.90625 49.265625 50.4375 45.09375 
Q 46.96875 40.921875 40.578125 39.3125 
z
" id="DejaVuSans-51"/>
      </defs>
      <use xlink:href="#DejaVuSans-100"/>
      <use x="63.476562" xlink:href="#DejaVuSans-105"/>
      <use x="91.259766" xlink:href="#DejaVuSans-108"/>
      <use x="119.042969" xlink:href="#DejaVuSans-97"/>
      <use x="180.322266" xlink:href="#DejaVuSans-116"/>
      <use x="219.53125" xlink:href="#DejaVuSans-105"/>
      <use x="247.314453" xlink:href="#DejaVuSans-111"/>
      <use x="308.496094" xlink:href="#DejaVuSans-110"/>
      <use x="371.875" xlink:href="#DejaVuSans-58"/>
      <use x="405.566406" xlink:href="#DejaVuSans-32"/>
      <use x="437.353516" xlink:href="#DejaVuSans-51"/>
     </g>
    </g>
    <g id="line2d_40">
     <path d="M 123.94375 143.810938 
L 143.94375 143.810938 
" style="fill:none;stroke:#0090ff;stroke-linecap:square;stroke-width:1.5;"/>
    </g>
    <g id="line2d_41"/>
    <g id="text_22">
     <!-- dilation: 4 -->
     <g transform="translate(151.94375 147.310938)scale(0.1 -0.1)">
      <use xlink:href="#DejaVuSans-100"/>
      <use x="63.476562" xlink:href="#DejaVuSans-105"/>
      <use x="91.259766" xlink:href="#DejaVuSans-108"/>
      <use x="119.042969" xlink:href="#DejaVuSans-97"/>
      <use x="180.322266" xlink:href="#DejaVuSans-116"/>
      <use x="219.53125" xlink:href="#DejaVuSans-105"/>
      <use x="247.314453" xlink:href="#DejaVuSans-111"/>
      <use x="308.496094" xlink:href="#DejaVuSans-110"/>
      <use x="371.875" xlink:href="#DejaVuSans-58"/>
      <use x="405.566406" xlink:href="#DejaVuSans-32"/>
      <use x="437.353516" xlink:href="#DejaVuSans-52"/>
     </g>
    </g>
    <g id="line2d_42">
     <path d="M 123.94375 158.489063 
L 143.94375 158.489063 
" style="fill:none;stroke:#00d4ff;stroke-linecap:square;stroke-width:1.5;"/>
    </g>
    <g id="line2d_43"/>
    <g id="text_23">
     <!-- dilation: 5 -->
     <g transform="translate(151.94375 161.989063)scale(0.1 -0.1)">
      <use xlink:href="#DejaVuSans-100"/>
      <use x="63.476562" xlink:href="#DejaVuSans-105"/>
      <use x="91.259766" xlink:href="#DejaVuSans-108"/>
      <use x="119.042969" xlink:href="#DejaVuSans-97"/>
      <use x="180.322266" xlink:href="#DejaVuSans-116"/>
      <use x="219.53125" xlink:href="#DejaVuSans-105"/>
      <use x="247.314453" xlink:href="#DejaVuSans-111"/>
      <use x="308.496094" xlink:href="#DejaVuSans-110"/>
      <use x="371.875" xlink:href="#DejaVuSans-58"/>
      <use x="405.566406" xlink:href="#DejaVuSans-32"/>
      <use x="437.353516" xlink:href="#DejaVuSans-53"/>
     </g>
    </g>
    <g id="line2d_44">
     <path d="M 123.94375 173.167188 
L 143.94375 173.167188 
" style="fill:none;stroke:#29ffce;stroke-linecap:square;stroke-width:1.5;"/>
    </g>
    <g id="line2d_45"/>
    <g id="text_24">
     <!-- dilation: 6 -->
     <g transform="translate(151.94375 176.667188)scale(0.1 -0.1)">
      <use xlink:href="#DejaVuSans-100"/>
      <use x="63.476562" xlink:href="#DejaVuSans-105"/>
      <use x="91.259766" xlink:href="#DejaVuSans-108"/>
      <use x="119.042969" xlink:href="#DejaVuSans-97"/>
      <use x="180.322266" xlink:href="#DejaVuSans-116"/>
      <use x="219.53125" xlink:href="#DejaVuSans-105"/>
      <use x="247.314453" xlink:href="#DejaVuSans-111"/>
      <use x="308.496094" xlink:href="#DejaVuSans-110"/>
      <use x="371.875" xlink:href="#DejaVuSans-58"/>
      <use x="405.566406" xlink:href="#DejaVuSans-32"/>
      <use x="437.353516" xlink:href="#DejaVuSans-54"/>
     </g>
    </g>
    <g id="line2d_46">
     <path d="M 123.94375 187.845313 
L 143.94375 187.845313 
" style="fill:none;stroke:#60ff97;stroke-linecap:square;stroke-width:1.5;"/>
    </g>
    <g id="line2d_47"/>
    <g id="text_25">
     <!-- dilation: 7 -->
     <g transform="translate(151.94375 191.345313)scale(0.1 -0.1)">
      <defs>
       <path d="M 8.203125 72.90625 
L 55.078125 72.90625 
L 55.078125 68.703125 
L 28.609375 0 
L 18.3125 0 
L 43.21875 64.59375 
L 8.203125 64.59375 
z
" id="DejaVuSans-55"/>
      </defs>
      <use xlink:href="#DejaVuSans-100"/>
      <use x="63.476562" xlink:href="#DejaVuSans-105"/>
      <use x="91.259766" xlink:href="#DejaVuSans-108"/>
      <use x="119.042969" xlink:href="#DejaVuSans-97"/>
      <use x="180.322266" xlink:href="#DejaVuSans-116"/>
      <use x="219.53125" xlink:href="#DejaVuSans-105"/>
      <use x="247.314453" xlink:href="#DejaVuSans-111"/>
      <use x="308.496094" xlink:href="#DejaVuSans-110"/>
      <use x="371.875" xlink:href="#DejaVuSans-58"/>
      <use x="405.566406" xlink:href="#DejaVuSans-32"/>
      <use x="437.353516" xlink:href="#DejaVuSans-55"/>
     </g>
    </g>
    <g id="line2d_48">
     <path d="M 123.94375 202.523438 
L 143.94375 202.523438 
" style="fill:none;stroke:#97ff60;stroke-linecap:square;stroke-width:1.5;"/>
    </g>
    <g id="line2d_49"/>
    <g id="text_26">
     <!-- dilation: 8 -->
     <g transform="translate(151.94375 206.023438)scale(0.1 -0.1)">
      <use xlink:href="#DejaVuSans-100"/>
      <use x="63.476562" xlink:href="#DejaVuSans-105"/>
      <use x="91.259766" xlink:href="#DejaVuSans-108"/>
      <use x="119.042969" xlink:href="#DejaVuSans-97"/>
      <use x="180.322266" xlink:href="#DejaVuSans-116"/>
      <use x="219.53125" xlink:href="#DejaVuSans-105"/>
      <use x="247.314453" xlink:href="#DejaVuSans-111"/>
      <use x="308.496094" xlink:href="#DejaVuSans-110"/>
      <use x="371.875" xlink:href="#DejaVuSans-58"/>
      <use x="405.566406" xlink:href="#DejaVuSans-32"/>
      <use x="437.353516" xlink:href="#DejaVuSans-56"/>
     </g>
    </g>
    <g id="line2d_50">
     <path d="M 123.94375 217.201563 
L 143.94375 217.201563 
" style="fill:none;stroke:#ceff29;stroke-linecap:square;stroke-width:1.5;"/>
    </g>
    <g id="line2d_51"/>
    <g id="text_27">
     <!-- dilation: 9 -->
     <g transform="translate(151.94375 220.701563)scale(0.1 -0.1)">
      <use xlink:href="#DejaVuSans-100"/>
      <use x="63.476562" xlink:href="#DejaVuSans-105"/>
      <use x="91.259766" xlink:href="#DejaVuSans-108"/>
      <use x="119.042969" xlink:href="#DejaVuSans-97"/>
      <use x="180.322266" xlink:href="#DejaVuSans-116"/>
      <use x="219.53125" xlink:href="#DejaVuSans-105"/>
      <use x="247.314453" xlink:href="#DejaVuSans-111"/>
      <use x="308.496094" xlink:href="#DejaVuSans-110"/>
      <use x="371.875" xlink:href="#DejaVuSans-58"/>
      <use x="405.566406" xlink:href="#DejaVuSans-32"/>
      <use x="437.353516" xlink:href="#DejaVuSans-57"/>
     </g>
    </g>
    <g id="line2d_52">
     <path d="M 123.94375 231.879688 
L 143.94375 231.879688 
" style="fill:none;stroke:#ffe600;stroke-linecap:square;stroke-width:1.5;"/>
    </g>
    <g id="line2d_53"/>
    <g id="text_28">
     <!-- dilation: 10 -->
     <g transform="translate(151.94375 235.379688)scale(0.1 -0.1)">
      <use xlink:href="#DejaVuSans-100"/>
      <use x="63.476562" xlink:href="#DejaVuSans-105"/>
      <use x="91.259766" xlink:href="#DejaVuSans-108"/>
      <use x="119.042969" xlink:href="#DejaVuSans-97"/>
      <use x="180.322266" xlink:href="#DejaVuSans-116"/>
      <use x="219.53125" xlink:href="#DejaVuSans-105"/>
      <use x="247.314453" xlink:href="#DejaVuSans-111"/>
      <use x="308.496094" xlink:href="#DejaVuSans-110"/>
      <use x="371.875" xlink:href="#DejaVuSans-58"/>
      <use x="405.566406" xlink:href="#DejaVuSans-32"/>
      <use x="437.353516" xlink:href="#DejaVuSans-49"/>
      <use x="500.976562" xlink:href="#DejaVuSans-48"/>
     </g>
    </g>
    <g id="line2d_54">
     <path d="M 123.94375 246.557813 
L 143.94375 246.557813 
" style="fill:none;stroke:#ffa700;stroke-linecap:square;stroke-width:1.5;"/>
    </g>
    <g id="line2d_55"/>
    <g id="text_29">
     <!-- dilation: 11 -->
     <g transform="translate(151.94375 250.057813)scale(0.1 -0.1)">
      <use xlink:href="#DejaVuSans-100"/>
      <use x="63.476562" xlink:href="#DejaVuSans-105"/>
      <use x="91.259766" xlink:href="#DejaVuSans-108"/>
      <use x="119.042969" xlink:href="#DejaVuSans-97"/>
      <use x="180.322266" xlink:href="#DejaVuSans-116"/>
      <use x="219.53125" xlink:href="#DejaVuSans-105"/>
      <use x="247.314453" xlink:href="#DejaVuSans-111"/>
      <use x="308.496094" xlink:href="#DejaVuSans-110"/>
      <use x="371.875" xlink:href="#DejaVuSans-58"/>
      <use x="405.566406" xlink:href="#DejaVuSans-32"/>
      <use x="437.353516" xlink:href="#DejaVuSans-49"/>
      <use x="500.976562" xlink:href="#DejaVuSans-49"/>
     </g>
    </g>
    <g id="line2d_56">
     <path d="M 123.94375 261.235937 
L 143.94375 261.235937 
" style="fill:none;stroke:#ff6800;stroke-linecap:square;stroke-width:1.5;"/>
    </g>
    <g id="line2d_57"/>
    <g id="text_30">
     <!-- dilation: 12 -->
     <g transform="translate(151.94375 264.735937)scale(0.1 -0.1)">
      <use xlink:href="#DejaVuSans-100"/>
      <use x="63.476562" xlink:href="#DejaVuSans-105"/>
      <use x="91.259766" xlink:href="#DejaVuSans-108"/>
      <use x="119.042969" xlink:href="#DejaVuSans-97"/>
      <use x="180.322266" xlink:href="#DejaVuSans-116"/>
      <use x="219.53125" xlink:href="#DejaVuSans-105"/>
      <use x="247.314453" xlink:href="#DejaVuSans-111"/>
      <use x="308.496094" xlink:href="#DejaVuSans-110"/>
      <use x="371.875" xlink:href="#DejaVuSans-58"/>
      <use x="405.566406" xlink:href="#DejaVuSans-32"/>
      <use x="437.353516" xlink:href="#DejaVuSans-49"/>
      <use x="500.976562" xlink:href="#DejaVuSans-50"/>
     </g>
    </g>
    <g id="line2d_58">
     <path d="M 123.94375 275.914062 
L 143.94375 275.914062 
" style="fill:none;stroke:#ff2900;stroke-linecap:square;stroke-width:1.5;"/>
    </g>
    <g id="line2d_59"/>
    <g id="text_31">
     <!-- dilation: 13 -->
     <g transform="translate(151.94375 279.414062)scale(0.1 -0.1)">
      <use xlink:href="#DejaVuSans-100"/>
      <use x="63.476562" xlink:href="#DejaVuSans-105"/>
      <use x="91.259766" xlink:href="#DejaVuSans-108"/>
      <use x="119.042969" xlink:href="#DejaVuSans-97"/>
      <use x="180.322266" xlink:href="#DejaVuSans-116"/>
      <use x="219.53125" xlink:href="#DejaVuSans-105"/>
      <use x="247.314453" xlink:href="#DejaVuSans-111"/>
      <use x="308.496094" xlink:href="#DejaVuSans-110"/>
      <use x="371.875" xlink:href="#DejaVuSans-58"/>
      <use x="405.566406" xlink:href="#DejaVuSans-32"/>
      <use x="437.353516" xlink:href="#DejaVuSans-49"/>
      <use x="500.976562" xlink:href="#DejaVuSans-51"/>
     </g>
    </g>
    <g id="line2d_60">
     <path d="M 123.94375 290.592188 
L 143.94375 290.592188 
" style="fill:none;stroke:#cd0000;stroke-linecap:square;stroke-width:1.5;"/>
    </g>
    <g id="line2d_61"/>
    <g id="text_32">
     <!-- dilation: 14 -->
     <g transform="translate(151.94375 294.092188)scale(0.1 -0.1)">
      <use xlink:href="#DejaVuSans-100"/>
      <use x="63.476562" xlink:href="#DejaVuSans-105"/>
      <use x="91.259766" xlink:href="#DejaVuSans-108"/>
      <use x="119.042969" xlink:href="#DejaVuSans-97"/>
      <use x="180.322266" xlink:href="#DejaVuSans-116"/>
      <use x="219.53125" xlink:href="#DejaVuSans-105"/>
      <use x="247.314453" xlink:href="#DejaVuSans-111"/>
      <use x="308.496094" xlink:href="#DejaVuSans-110"/>
      <use x="371.875" xlink:href="#DejaVuSans-58"/>
      <use x="405.566406" xlink:href="#DejaVuSans-32"/>
      <use x="437.353516" xlink:href="#DejaVuSans-49"/>
      <use x="500.976562" xlink:href="#DejaVuSans-52"/>
     </g>
    </g>
    <g id="line2d_62">
     <path d="M 123.94375 305.270312 
L 143.94375 305.270312 
" style="fill:none;stroke:#800000;stroke-linecap:square;stroke-width:1.5;"/>
    </g>
    <g id="line2d_63"/>
    <g id="text_33">
     <!-- dilation: 15 -->
     <g transform="translate(151.94375 308.770312)scale(0.1 -0.1)">
      <use xlink:href="#DejaVuSans-100"/>
      <use x="63.476562" xlink:href="#DejaVuSans-105"/>
      <use x="91.259766" xlink:href="#DejaVuSans-108"/>
      <use x="119.042969" xlink:href="#DejaVuSans-97"/>
      <use x="180.322266" xlink:href="#DejaVuSans-116"/>
      <use x="219.53125" xlink:href="#DejaVuSans-105"/>
      <use x="247.314453" xlink:href="#DejaVuSans-111"/>
      <use x="308.496094" xlink:href="#DejaVuSans-110"/>
      <use x="371.875" xlink:href="#DejaVuSans-58"/>
      <use x="405.566406" xlink:href="#DejaVuSans-32"/>
      <use x="437.353516" xlink:href="#DejaVuSans-49"/>
      <use x="500.976562" xlink:href="#DejaVuSans-53"/>
     </g>
    </g>
   </g>
  </g>
 </g>
 <defs>
  <clipPath id="pc24bc930bf">
   <rect height="266.112" width="357.12" x="114.94375" y="72"/>
  </clipPath>
 </defs>
</svg>
