<?xml version="1.0" encoding="utf-8" standalone="no"?>
<!DOCTYPE svg PUBLIC "-//W3C//DTD SVG 1.1//EN"
  "http://www.w3.org/Graphics/SVG/1.1/DTD/svg11.dtd">
<!-- Created with matplotlib (https://matplotlib.org/) -->
<svg height="440.746375pt" version="1.1" viewBox="0 0 653.016625 440.746375" width="653.016625pt" xmlns="http://www.w3.org/2000/svg" xmlns:xlink="http://www.w3.org/1999/xlink">
 <metadata>
  <rdf:RDF xmlns:cc="http://creativecommons.org/ns#" xmlns:dc="http://purl.org/dc/elements/1.1/" xmlns:rdf="http://www.w3.org/1999/02/22-rdf-syntax-ns#">
   <cc:Work>
    <dc:type rdf:resource="http://purl.org/dc/dcmitype/StillImage"/>
    <dc:date>2021-07-08T12:06:48.443376</dc:date>
    <dc:format>image/svg+xml</dc:format>
    <dc:creator>
     <cc:Agent>
      <dc:title>Matplotlib v3.3.2, https://matplotlib.org/</dc:title>
     </cc:Agent>
    </dc:creator>
   </cc:Work>
  </rdf:RDF>
 </metadata>
 <defs>
  <style type="text/css">*{stroke-linecap:butt;stroke-linejoin:round;}</style>
 </defs>
 <g id="figure_1">
  <g id="patch_1">
   <path d="M 0 440.746375 
L 653.016625 440.746375 
L 653.016625 0 
L 0 0 
z
" style="fill:#ffffff;"/>
  </g>
  <g id="axes_1">
   <g id="patch_2">
    <path d="M 108.58125 338.112 
L 465.70125 338.112 
L 465.70125 72 
L 108.58125 72 
z
" style="fill:#ffffff;"/>
   </g>
   <g id="matplotlib.axis_1">
    <g id="xtick_1">
     <g id="line2d_1">
      <defs>
       <path d="M 0 0 
L 0 3.5 
" id="m7c215635fa" style="stroke:#000000;stroke-width:0.8;"/>
      </defs>
      <g>
       <use style="stroke:#000000;stroke-width:0.8;" x="124.813977" xlink:href="#m7c215635fa" y="338.112"/>
      </g>
     </g>
     <g id="text_1">
      <!-- 0 -->
      <g transform="translate(121.632727 352.710438)scale(0.1 -0.1)">
       <defs>
        <path d="M 31.78125 66.40625 
Q 24.171875 66.40625 20.328125 58.90625 
Q 16.5 51.421875 16.5 36.375 
Q 16.5 21.390625 20.328125 13.890625 
Q 24.171875 6.390625 31.78125 6.390625 
Q 39.453125 6.390625 43.28125 13.890625 
Q 47.125 21.390625 47.125 36.375 
Q 47.125 51.421875 43.28125 58.90625 
Q 39.453125 66.40625 31.78125 66.40625 
z
M 31.78125 74.21875 
Q 44.046875 74.21875 50.515625 64.515625 
Q 56.984375 54.828125 56.984375 36.375 
Q 56.984375 17.96875 50.515625 8.265625 
Q 44.046875 -1.421875 31.78125 -1.421875 
Q 19.53125 -1.421875 13.0625 8.265625 
Q 6.59375 17.96875 6.59375 36.375 
Q 6.59375 54.828125 13.0625 64.515625 
Q 19.53125 74.21875 31.78125 74.21875 
z
" id="DejaVuSans-48"/>
       </defs>
       <use xlink:href="#DejaVuSans-48"/>
      </g>
     </g>
    </g>
    <g id="xtick_2">
     <g id="line2d_2">
      <g>
       <use style="stroke:#000000;stroke-width:0.8;" x="168.10125" xlink:href="#m7c215635fa" y="338.112"/>
      </g>
     </g>
     <g id="text_2">
      <!-- 2 -->
      <g transform="translate(164.92 352.710438)scale(0.1 -0.1)">
       <defs>
        <path d="M 19.1875 8.296875 
L 53.609375 8.296875 
L 53.609375 0 
L 7.328125 0 
L 7.328125 8.296875 
Q 12.9375 14.109375 22.625 23.890625 
Q 32.328125 33.6875 34.8125 36.53125 
Q 39.546875 41.84375 41.421875 45.53125 
Q 43.3125 49.21875 43.3125 52.78125 
Q 43.3125 58.59375 39.234375 62.25 
Q 35.15625 65.921875 28.609375 65.921875 
Q 23.96875 65.921875 18.8125 64.3125 
Q 13.671875 62.703125 7.8125 59.421875 
L 7.8125 69.390625 
Q 13.765625 71.78125 18.9375 73 
Q 24.125 74.21875 28.421875 74.21875 
Q 39.75 74.21875 46.484375 68.546875 
Q 53.21875 62.890625 53.21875 53.421875 
Q 53.21875 48.921875 51.53125 44.890625 
Q 49.859375 40.875 45.40625 35.40625 
Q 44.1875 33.984375 37.640625 27.21875 
Q 31.109375 20.453125 19.1875 8.296875 
z
" id="DejaVuSans-50"/>
       </defs>
       <use xlink:href="#DejaVuSans-50"/>
      </g>
     </g>
    </g>
    <g id="xtick_3">
     <g id="line2d_3">
      <g>
       <use style="stroke:#000000;stroke-width:0.8;" x="211.388523" xlink:href="#m7c215635fa" y="338.112"/>
      </g>
     </g>
     <g id="text_3">
      <!-- 4 -->
      <g transform="translate(208.207273 352.710438)scale(0.1 -0.1)">
       <defs>
        <path d="M 37.796875 64.3125 
L 12.890625 25.390625 
L 37.796875 25.390625 
z
M 35.203125 72.90625 
L 47.609375 72.90625 
L 47.609375 25.390625 
L 58.015625 25.390625 
L 58.015625 17.1875 
L 47.609375 17.1875 
L 47.609375 0 
L 37.796875 0 
L 37.796875 17.1875 
L 4.890625 17.1875 
L 4.890625 26.703125 
z
" id="DejaVuSans-52"/>
       </defs>
       <use xlink:href="#DejaVuSans-52"/>
      </g>
     </g>
    </g>
    <g id="xtick_4">
     <g id="line2d_4">
      <g>
       <use style="stroke:#000000;stroke-width:0.8;" x="254.675795" xlink:href="#m7c215635fa" y="338.112"/>
      </g>
     </g>
     <g id="text_4">
      <!-- 6 -->
      <g transform="translate(251.494545 352.710438)scale(0.1 -0.1)">
       <defs>
        <path d="M 33.015625 40.375 
Q 26.375 40.375 22.484375 35.828125 
Q 18.609375 31.296875 18.609375 23.390625 
Q 18.609375 15.53125 22.484375 10.953125 
Q 26.375 6.390625 33.015625 6.390625 
Q 39.65625 6.390625 43.53125 10.953125 
Q 47.40625 15.53125 47.40625 23.390625 
Q 47.40625 31.296875 43.53125 35.828125 
Q 39.65625 40.375 33.015625 40.375 
z
M 52.59375 71.296875 
L 52.59375 62.3125 
Q 48.875 64.0625 45.09375 64.984375 
Q 41.3125 65.921875 37.59375 65.921875 
Q 27.828125 65.921875 22.671875 59.328125 
Q 17.53125 52.734375 16.796875 39.40625 
Q 19.671875 43.65625 24.015625 45.921875 
Q 28.375 48.1875 33.59375 48.1875 
Q 44.578125 48.1875 50.953125 41.515625 
Q 57.328125 34.859375 57.328125 23.390625 
Q 57.328125 12.15625 50.6875 5.359375 
Q 44.046875 -1.421875 33.015625 -1.421875 
Q 20.359375 -1.421875 13.671875 8.265625 
Q 6.984375 17.96875 6.984375 36.375 
Q 6.984375 53.65625 15.1875 63.9375 
Q 23.390625 74.21875 37.203125 74.21875 
Q 40.921875 74.21875 44.703125 73.484375 
Q 48.484375 72.75 52.59375 71.296875 
z
" id="DejaVuSans-54"/>
       </defs>
       <use xlink:href="#DejaVuSans-54"/>
      </g>
     </g>
    </g>
    <g id="xtick_5">
     <g id="line2d_5">
      <g>
       <use style="stroke:#000000;stroke-width:0.8;" x="297.963068" xlink:href="#m7c215635fa" y="338.112"/>
      </g>
     </g>
     <g id="text_5">
      <!-- 8 -->
      <g transform="translate(294.781818 352.710438)scale(0.1 -0.1)">
       <defs>
        <path d="M 31.78125 34.625 
Q 24.75 34.625 20.71875 30.859375 
Q 16.703125 27.09375 16.703125 20.515625 
Q 16.703125 13.921875 20.71875 10.15625 
Q 24.75 6.390625 31.78125 6.390625 
Q 38.8125 6.390625 42.859375 10.171875 
Q 46.921875 13.96875 46.921875 20.515625 
Q 46.921875 27.09375 42.890625 30.859375 
Q 38.875 34.625 31.78125 34.625 
z
M 21.921875 38.8125 
Q 15.578125 40.375 12.03125 44.71875 
Q 8.5 49.078125 8.5 55.328125 
Q 8.5 64.0625 14.71875 69.140625 
Q 20.953125 74.21875 31.78125 74.21875 
Q 42.671875 74.21875 48.875 69.140625 
Q 55.078125 64.0625 55.078125 55.328125 
Q 55.078125 49.078125 51.53125 44.71875 
Q 48 40.375 41.703125 38.8125 
Q 48.828125 37.15625 52.796875 32.3125 
Q 56.78125 27.484375 56.78125 20.515625 
Q 56.78125 9.90625 50.3125 4.234375 
Q 43.84375 -1.421875 31.78125 -1.421875 
Q 19.734375 -1.421875 13.25 4.234375 
Q 6.78125 9.90625 6.78125 20.515625 
Q 6.78125 27.484375 10.78125 32.3125 
Q 14.796875 37.15625 21.921875 38.8125 
z
M 18.3125 54.390625 
Q 18.3125 48.734375 21.84375 45.5625 
Q 25.390625 42.390625 31.78125 42.390625 
Q 38.140625 42.390625 41.71875 45.5625 
Q 45.3125 48.734375 45.3125 54.390625 
Q 45.3125 60.0625 41.71875 63.234375 
Q 38.140625 66.40625 31.78125 66.40625 
Q 25.390625 66.40625 21.84375 63.234375 
Q 18.3125 60.0625 18.3125 54.390625 
z
" id="DejaVuSans-56"/>
       </defs>
       <use xlink:href="#DejaVuSans-56"/>
      </g>
     </g>
    </g>
    <g id="xtick_6">
     <g id="line2d_6">
      <g>
       <use style="stroke:#000000;stroke-width:0.8;" x="341.250341" xlink:href="#m7c215635fa" y="338.112"/>
      </g>
     </g>
     <g id="text_6">
      <!-- 10 -->
      <g transform="translate(334.887841 352.710438)scale(0.1 -0.1)">
       <defs>
        <path d="M 12.40625 8.296875 
L 28.515625 8.296875 
L 28.515625 63.921875 
L 10.984375 60.40625 
L 10.984375 69.390625 
L 28.421875 72.90625 
L 38.28125 72.90625 
L 38.28125 8.296875 
L 54.390625 8.296875 
L 54.390625 0 
L 12.40625 0 
z
" id="DejaVuSans-49"/>
       </defs>
       <use xlink:href="#DejaVuSans-49"/>
       <use x="63.623047" xlink:href="#DejaVuSans-48"/>
      </g>
     </g>
    </g>
    <g id="xtick_7">
     <g id="line2d_7">
      <g>
       <use style="stroke:#000000;stroke-width:0.8;" x="384.537614" xlink:href="#m7c215635fa" y="338.112"/>
      </g>
     </g>
     <g id="text_7">
      <!-- 12 -->
      <g transform="translate(378.175114 352.710438)scale(0.1 -0.1)">
       <use xlink:href="#DejaVuSans-49"/>
       <use x="63.623047" xlink:href="#DejaVuSans-50"/>
      </g>
     </g>
    </g>
    <g id="xtick_8">
     <g id="line2d_8">
      <g>
       <use style="stroke:#000000;stroke-width:0.8;" x="427.824886" xlink:href="#m7c215635fa" y="338.112"/>
      </g>
     </g>
     <g id="text_8">
      <!-- 14 -->
      <g transform="translate(421.462386 352.710438)scale(0.1 -0.1)">
       <use xlink:href="#DejaVuSans-49"/>
       <use x="63.623047" xlink:href="#DejaVuSans-52"/>
      </g>
     </g>
    </g>
    <g id="text_9">
     <!-- sensing_radius -->
     <g transform="translate(249.998281 366.388562)scale(0.1 -0.1)">
      <defs>
       <path d="M 44.28125 53.078125 
L 44.28125 44.578125 
Q 40.484375 46.53125 36.375 47.5 
Q 32.28125 48.484375 27.875 48.484375 
Q 21.1875 48.484375 17.84375 46.4375 
Q 14.5 44.390625 14.5 40.28125 
Q 14.5 37.15625 16.890625 35.375 
Q 19.28125 33.59375 26.515625 31.984375 
L 29.59375 31.296875 
Q 39.15625 29.25 43.1875 25.515625 
Q 47.21875 21.78125 47.21875 15.09375 
Q 47.21875 7.46875 41.1875 3.015625 
Q 35.15625 -1.421875 24.609375 -1.421875 
Q 20.21875 -1.421875 15.453125 -0.5625 
Q 10.6875 0.296875 5.421875 2 
L 5.421875 11.28125 
Q 10.40625 8.6875 15.234375 7.390625 
Q 20.0625 6.109375 24.8125 6.109375 
Q 31.15625 6.109375 34.5625 8.28125 
Q 37.984375 10.453125 37.984375 14.40625 
Q 37.984375 18.0625 35.515625 20.015625 
Q 33.0625 21.96875 24.703125 23.78125 
L 21.578125 24.515625 
Q 13.234375 26.265625 9.515625 29.90625 
Q 5.8125 33.546875 5.8125 39.890625 
Q 5.8125 47.609375 11.28125 51.796875 
Q 16.75 56 26.8125 56 
Q 31.78125 56 36.171875 55.265625 
Q 40.578125 54.546875 44.28125 53.078125 
z
" id="DejaVuSans-115"/>
       <path d="M 56.203125 29.59375 
L 56.203125 25.203125 
L 14.890625 25.203125 
Q 15.484375 15.921875 20.484375 11.0625 
Q 25.484375 6.203125 34.421875 6.203125 
Q 39.59375 6.203125 44.453125 7.46875 
Q 49.3125 8.734375 54.109375 11.28125 
L 54.109375 2.78125 
Q 49.265625 0.734375 44.1875 -0.34375 
Q 39.109375 -1.421875 33.890625 -1.421875 
Q 20.796875 -1.421875 13.15625 6.1875 
Q 5.515625 13.8125 5.515625 26.8125 
Q 5.515625 40.234375 12.765625 48.109375 
Q 20.015625 56 32.328125 56 
Q 43.359375 56 49.78125 48.890625 
Q 56.203125 41.796875 56.203125 29.59375 
z
M 47.21875 32.234375 
Q 47.125 39.59375 43.09375 43.984375 
Q 39.0625 48.390625 32.421875 48.390625 
Q 24.90625 48.390625 20.390625 44.140625 
Q 15.875 39.890625 15.1875 32.171875 
z
" id="DejaVuSans-101"/>
       <path d="M 54.890625 33.015625 
L 54.890625 0 
L 45.90625 0 
L 45.90625 32.71875 
Q 45.90625 40.484375 42.875 44.328125 
Q 39.84375 48.1875 33.796875 48.1875 
Q 26.515625 48.1875 22.3125 43.546875 
Q 18.109375 38.921875 18.109375 30.90625 
L 18.109375 0 
L 9.078125 0 
L 9.078125 54.6875 
L 18.109375 54.6875 
L 18.109375 46.1875 
Q 21.34375 51.125 25.703125 53.5625 
Q 30.078125 56 35.796875 56 
Q 45.21875 56 50.046875 50.171875 
Q 54.890625 44.34375 54.890625 33.015625 
z
" id="DejaVuSans-110"/>
       <path d="M 9.421875 54.6875 
L 18.40625 54.6875 
L 18.40625 0 
L 9.421875 0 
z
M 9.421875 75.984375 
L 18.40625 75.984375 
L 18.40625 64.59375 
L 9.421875 64.59375 
z
" id="DejaVuSans-105"/>
       <path d="M 45.40625 27.984375 
Q 45.40625 37.75 41.375 43.109375 
Q 37.359375 48.484375 30.078125 48.484375 
Q 22.859375 48.484375 18.828125 43.109375 
Q 14.796875 37.75 14.796875 27.984375 
Q 14.796875 18.265625 18.828125 12.890625 
Q 22.859375 7.515625 30.078125 7.515625 
Q 37.359375 7.515625 41.375 12.890625 
Q 45.40625 18.265625 45.40625 27.984375 
z
M 54.390625 6.78125 
Q 54.390625 -7.171875 48.1875 -13.984375 
Q 42 -20.796875 29.203125 -20.796875 
Q 24.46875 -20.796875 20.265625 -20.09375 
Q 16.0625 -19.390625 12.109375 -17.921875 
L 12.109375 -9.1875 
Q 16.0625 -11.328125 19.921875 -12.34375 
Q 23.78125 -13.375 27.78125 -13.375 
Q 36.625 -13.375 41.015625 -8.765625 
Q 45.40625 -4.15625 45.40625 5.171875 
L 45.40625 9.625 
Q 42.625 4.78125 38.28125 2.390625 
Q 33.9375 0 27.875 0 
Q 17.828125 0 11.671875 7.65625 
Q 5.515625 15.328125 5.515625 27.984375 
Q 5.515625 40.671875 11.671875 48.328125 
Q 17.828125 56 27.875 56 
Q 33.9375 56 38.28125 53.609375 
Q 42.625 51.21875 45.40625 46.390625 
L 45.40625 54.6875 
L 54.390625 54.6875 
z
" id="DejaVuSans-103"/>
       <path d="M 50.984375 -16.609375 
L 50.984375 -23.578125 
L -0.984375 -23.578125 
L -0.984375 -16.609375 
z
" id="DejaVuSans-95"/>
       <path d="M 41.109375 46.296875 
Q 39.59375 47.171875 37.8125 47.578125 
Q 36.03125 48 33.890625 48 
Q 26.265625 48 22.1875 43.046875 
Q 18.109375 38.09375 18.109375 28.8125 
L 18.109375 0 
L 9.078125 0 
L 9.078125 54.6875 
L 18.109375 54.6875 
L 18.109375 46.1875 
Q 20.953125 51.171875 25.484375 53.578125 
Q 30.03125 56 36.53125 56 
Q 37.453125 56 38.578125 55.875 
Q 39.703125 55.765625 41.0625 55.515625 
z
" id="DejaVuSans-114"/>
       <path d="M 34.28125 27.484375 
Q 23.390625 27.484375 19.1875 25 
Q 14.984375 22.515625 14.984375 16.5 
Q 14.984375 11.71875 18.140625 8.90625 
Q 21.296875 6.109375 26.703125 6.109375 
Q 34.1875 6.109375 38.703125 11.40625 
Q 43.21875 16.703125 43.21875 25.484375 
L 43.21875 27.484375 
z
M 52.203125 31.203125 
L 52.203125 0 
L 43.21875 0 
L 43.21875 8.296875 
Q 40.140625 3.328125 35.546875 0.953125 
Q 30.953125 -1.421875 24.3125 -1.421875 
Q 15.921875 -1.421875 10.953125 3.296875 
Q 6 8.015625 6 15.921875 
Q 6 25.140625 12.171875 29.828125 
Q 18.359375 34.515625 30.609375 34.515625 
L 43.21875 34.515625 
L 43.21875 35.40625 
Q 43.21875 41.609375 39.140625 45 
Q 35.0625 48.390625 27.6875 48.390625 
Q 23 48.390625 18.546875 47.265625 
Q 14.109375 46.140625 10.015625 43.890625 
L 10.015625 52.203125 
Q 14.9375 54.109375 19.578125 55.046875 
Q 24.21875 56 28.609375 56 
Q 40.484375 56 46.34375 49.84375 
Q 52.203125 43.703125 52.203125 31.203125 
z
" id="DejaVuSans-97"/>
       <path d="M 45.40625 46.390625 
L 45.40625 75.984375 
L 54.390625 75.984375 
L 54.390625 0 
L 45.40625 0 
L 45.40625 8.203125 
Q 42.578125 3.328125 38.25 0.953125 
Q 33.9375 -1.421875 27.875 -1.421875 
Q 17.96875 -1.421875 11.734375 6.484375 
Q 5.515625 14.40625 5.515625 27.296875 
Q 5.515625 40.1875 11.734375 48.09375 
Q 17.96875 56 27.875 56 
Q 33.9375 56 38.25 53.625 
Q 42.578125 51.265625 45.40625 46.390625 
z
M 14.796875 27.296875 
Q 14.796875 17.390625 18.875 11.75 
Q 22.953125 6.109375 30.078125 6.109375 
Q 37.203125 6.109375 41.296875 11.75 
Q 45.40625 17.390625 45.40625 27.296875 
Q 45.40625 37.203125 41.296875 42.84375 
Q 37.203125 48.484375 30.078125 48.484375 
Q 22.953125 48.484375 18.875 42.84375 
Q 14.796875 37.203125 14.796875 27.296875 
z
" id="DejaVuSans-100"/>
       <path d="M 8.5 21.578125 
L 8.5 54.6875 
L 17.484375 54.6875 
L 17.484375 21.921875 
Q 17.484375 14.15625 20.5 10.265625 
Q 23.53125 6.390625 29.59375 6.390625 
Q 36.859375 6.390625 41.078125 11.03125 
Q 45.3125 15.671875 45.3125 23.6875 
L 45.3125 54.6875 
L 54.296875 54.6875 
L 54.296875 0 
L 45.3125 0 
L 45.3125 8.40625 
Q 42.046875 3.421875 37.71875 1 
Q 33.40625 -1.421875 27.6875 -1.421875 
Q 18.265625 -1.421875 13.375 4.4375 
Q 8.5 10.296875 8.5 21.578125 
z
M 31.109375 56 
z
" id="DejaVuSans-117"/>
      </defs>
      <use xlink:href="#DejaVuSans-115"/>
      <use x="52.099609" xlink:href="#DejaVuSans-101"/>
      <use x="113.623047" xlink:href="#DejaVuSans-110"/>
      <use x="177.001953" xlink:href="#DejaVuSans-115"/>
      <use x="229.101562" xlink:href="#DejaVuSans-105"/>
      <use x="256.884766" xlink:href="#DejaVuSans-110"/>
      <use x="320.263672" xlink:href="#DejaVuSans-103"/>
      <use x="383.740234" xlink:href="#DejaVuSans-95"/>
      <use x="433.740234" xlink:href="#DejaVuSans-114"/>
      <use x="474.853516" xlink:href="#DejaVuSans-97"/>
      <use x="536.132812" xlink:href="#DejaVuSans-100"/>
      <use x="599.609375" xlink:href="#DejaVuSans-105"/>
      <use x="627.392578" xlink:href="#DejaVuSans-117"/>
      <use x="690.771484" xlink:href="#DejaVuSans-115"/>
     </g>
    </g>
   </g>
   <g id="matplotlib.axis_2">
    <g id="ytick_1">
     <g id="line2d_9">
      <defs>
       <path d="M 0 0 
L -3.5 0 
" id="mb9ca4f6d67" style="stroke:#000000;stroke-width:0.8;"/>
      </defs>
      <g>
       <use style="stroke:#000000;stroke-width:0.8;" x="108.58125" xlink:href="#mb9ca4f6d67" y="305.030456"/>
      </g>
     </g>
     <g id="text_10">
      <!-- 3.5 -->
      <g transform="translate(85.678125 308.829675)scale(0.1 -0.1)">
       <defs>
        <path d="M 40.578125 39.3125 
Q 47.65625 37.796875 51.625 33 
Q 55.609375 28.21875 55.609375 21.1875 
Q 55.609375 10.40625 48.1875 4.484375 
Q 40.765625 -1.421875 27.09375 -1.421875 
Q 22.515625 -1.421875 17.65625 -0.515625 
Q 12.796875 0.390625 7.625 2.203125 
L 7.625 11.71875 
Q 11.71875 9.328125 16.59375 8.109375 
Q 21.484375 6.890625 26.8125 6.890625 
Q 36.078125 6.890625 40.9375 10.546875 
Q 45.796875 14.203125 45.796875 21.1875 
Q 45.796875 27.640625 41.28125 31.265625 
Q 36.765625 34.90625 28.71875 34.90625 
L 20.21875 34.90625 
L 20.21875 43.015625 
L 29.109375 43.015625 
Q 36.375 43.015625 40.234375 45.921875 
Q 44.09375 48.828125 44.09375 54.296875 
Q 44.09375 59.90625 40.109375 62.90625 
Q 36.140625 65.921875 28.71875 65.921875 
Q 24.65625 65.921875 20.015625 65.03125 
Q 15.375 64.15625 9.8125 62.3125 
L 9.8125 71.09375 
Q 15.4375 72.65625 20.34375 73.4375 
Q 25.25 74.21875 29.59375 74.21875 
Q 40.828125 74.21875 47.359375 69.109375 
Q 53.90625 64.015625 53.90625 55.328125 
Q 53.90625 49.265625 50.4375 45.09375 
Q 46.96875 40.921875 40.578125 39.3125 
z
" id="DejaVuSans-51"/>
        <path d="M 10.6875 12.40625 
L 21 12.40625 
L 21 0 
L 10.6875 0 
z
" id="DejaVuSans-46"/>
        <path d="M 10.796875 72.90625 
L 49.515625 72.90625 
L 49.515625 64.59375 
L 19.828125 64.59375 
L 19.828125 46.734375 
Q 21.96875 47.46875 24.109375 47.828125 
Q 26.265625 48.1875 28.421875 48.1875 
Q 40.625 48.1875 47.75 41.5 
Q 54.890625 34.8125 54.890625 23.390625 
Q 54.890625 11.625 47.5625 5.09375 
Q 40.234375 -1.421875 26.90625 -1.421875 
Q 22.3125 -1.421875 17.546875 -0.640625 
Q 12.796875 0.140625 7.71875 1.703125 
L 7.71875 11.625 
Q 12.109375 9.234375 16.796875 8.0625 
Q 21.484375 6.890625 26.703125 6.890625 
Q 35.15625 6.890625 40.078125 11.328125 
Q 45.015625 15.765625 45.015625 23.390625 
Q 45.015625 31 40.078125 35.4375 
Q 35.15625 39.890625 26.703125 39.890625 
Q 22.75 39.890625 18.8125 39.015625 
Q 14.890625 38.140625 10.796875 36.28125 
z
" id="DejaVuSans-53"/>
       </defs>
       <use xlink:href="#DejaVuSans-51"/>
       <use x="63.623047" xlink:href="#DejaVuSans-46"/>
       <use x="95.410156" xlink:href="#DejaVuSans-53"/>
      </g>
     </g>
    </g>
    <g id="ytick_2">
     <g id="line2d_10">
      <g>
       <use style="stroke:#000000;stroke-width:0.8;" x="108.58125" xlink:href="#mb9ca4f6d67" y="259.688138"/>
      </g>
     </g>
     <g id="text_11">
      <!-- 4.0 -->
      <g transform="translate(85.678125 263.487357)scale(0.1 -0.1)">
       <use xlink:href="#DejaVuSans-52"/>
       <use x="63.623047" xlink:href="#DejaVuSans-46"/>
       <use x="95.410156" xlink:href="#DejaVuSans-48"/>
      </g>
     </g>
    </g>
    <g id="ytick_3">
     <g id="line2d_11">
      <g>
       <use style="stroke:#000000;stroke-width:0.8;" x="108.58125" xlink:href="#mb9ca4f6d67" y="214.34582"/>
      </g>
     </g>
     <g id="text_12">
      <!-- 4.5 -->
      <g transform="translate(85.678125 218.145038)scale(0.1 -0.1)">
       <use xlink:href="#DejaVuSans-52"/>
       <use x="63.623047" xlink:href="#DejaVuSans-46"/>
       <use x="95.410156" xlink:href="#DejaVuSans-53"/>
      </g>
     </g>
    </g>
    <g id="ytick_4">
     <g id="line2d_12">
      <g>
       <use style="stroke:#000000;stroke-width:0.8;" x="108.58125" xlink:href="#mb9ca4f6d67" y="169.003501"/>
      </g>
     </g>
     <g id="text_13">
      <!-- 5.0 -->
      <g transform="translate(85.678125 172.80272)scale(0.1 -0.1)">
       <use xlink:href="#DejaVuSans-53"/>
       <use x="63.623047" xlink:href="#DejaVuSans-46"/>
       <use x="95.410156" xlink:href="#DejaVuSans-48"/>
      </g>
     </g>
    </g>
    <g id="ytick_5">
     <g id="line2d_13">
      <g>
       <use style="stroke:#000000;stroke-width:0.8;" x="108.58125" xlink:href="#mb9ca4f6d67" y="123.661183"/>
      </g>
     </g>
     <g id="text_14">
      <!-- 5.5 -->
      <g transform="translate(85.678125 127.460401)scale(0.1 -0.1)">
       <use xlink:href="#DejaVuSans-53"/>
       <use x="63.623047" xlink:href="#DejaVuSans-46"/>
       <use x="95.410156" xlink:href="#DejaVuSans-53"/>
      </g>
     </g>
    </g>
    <g id="ytick_6">
     <g id="line2d_14">
      <g>
       <use style="stroke:#000000;stroke-width:0.8;" x="108.58125" xlink:href="#mb9ca4f6d67" y="78.318864"/>
      </g>
     </g>
     <g id="text_15">
      <!-- 6.0 -->
      <g transform="translate(85.678125 82.118083)scale(0.1 -0.1)">
       <use xlink:href="#DejaVuSans-54"/>
       <use x="63.623047" xlink:href="#DejaVuSans-46"/>
       <use x="95.410156" xlink:href="#DejaVuSans-48"/>
      </g>
     </g>
    </g>
    <g id="text_16">
     <!-- path length/exit size [] -->
     <g transform="translate(79.598438 261.706)rotate(-90)scale(0.1 -0.1)">
      <defs>
       <path d="M 18.109375 8.203125 
L 18.109375 -20.796875 
L 9.078125 -20.796875 
L 9.078125 54.6875 
L 18.109375 54.6875 
L 18.109375 46.390625 
Q 20.953125 51.265625 25.265625 53.625 
Q 29.59375 56 35.59375 56 
Q 45.5625 56 51.78125 48.09375 
Q 58.015625 40.1875 58.015625 27.296875 
Q 58.015625 14.40625 51.78125 6.484375 
Q 45.5625 -1.421875 35.59375 -1.421875 
Q 29.59375 -1.421875 25.265625 0.953125 
Q 20.953125 3.328125 18.109375 8.203125 
z
M 48.6875 27.296875 
Q 48.6875 37.203125 44.609375 42.84375 
Q 40.53125 48.484375 33.40625 48.484375 
Q 26.265625 48.484375 22.1875 42.84375 
Q 18.109375 37.203125 18.109375 27.296875 
Q 18.109375 17.390625 22.1875 11.75 
Q 26.265625 6.109375 33.40625 6.109375 
Q 40.53125 6.109375 44.609375 11.75 
Q 48.6875 17.390625 48.6875 27.296875 
z
" id="DejaVuSans-112"/>
       <path d="M 18.3125 70.21875 
L 18.3125 54.6875 
L 36.8125 54.6875 
L 36.8125 47.703125 
L 18.3125 47.703125 
L 18.3125 18.015625 
Q 18.3125 11.328125 20.140625 9.421875 
Q 21.96875 7.515625 27.59375 7.515625 
L 36.8125 7.515625 
L 36.8125 0 
L 27.59375 0 
Q 17.1875 0 13.234375 3.875 
Q 9.28125 7.765625 9.28125 18.015625 
L 9.28125 47.703125 
L 2.6875 47.703125 
L 2.6875 54.6875 
L 9.28125 54.6875 
L 9.28125 70.21875 
z
" id="DejaVuSans-116"/>
       <path d="M 54.890625 33.015625 
L 54.890625 0 
L 45.90625 0 
L 45.90625 32.71875 
Q 45.90625 40.484375 42.875 44.328125 
Q 39.84375 48.1875 33.796875 48.1875 
Q 26.515625 48.1875 22.3125 43.546875 
Q 18.109375 38.921875 18.109375 30.90625 
L 18.109375 0 
L 9.078125 0 
L 9.078125 75.984375 
L 18.109375 75.984375 
L 18.109375 46.1875 
Q 21.34375 51.125 25.703125 53.5625 
Q 30.078125 56 35.796875 56 
Q 45.21875 56 50.046875 50.171875 
Q 54.890625 44.34375 54.890625 33.015625 
z
" id="DejaVuSans-104"/>
       <path id="DejaVuSans-32"/>
       <path d="M 9.421875 75.984375 
L 18.40625 75.984375 
L 18.40625 0 
L 9.421875 0 
z
" id="DejaVuSans-108"/>
       <path d="M 25.390625 72.90625 
L 33.6875 72.90625 
L 8.296875 -9.28125 
L 0 -9.28125 
z
" id="DejaVuSans-47"/>
       <path d="M 54.890625 54.6875 
L 35.109375 28.078125 
L 55.90625 0 
L 45.3125 0 
L 29.390625 21.484375 
L 13.484375 0 
L 2.875 0 
L 24.125 28.609375 
L 4.6875 54.6875 
L 15.28125 54.6875 
L 29.78125 35.203125 
L 44.28125 54.6875 
z
" id="DejaVuSans-120"/>
       <path d="M 5.515625 54.6875 
L 48.1875 54.6875 
L 48.1875 46.484375 
L 14.40625 7.171875 
L 48.1875 7.171875 
L 48.1875 0 
L 4.296875 0 
L 4.296875 8.203125 
L 38.09375 47.515625 
L 5.515625 47.515625 
z
" id="DejaVuSans-122"/>
       <path d="M 8.59375 75.984375 
L 29.296875 75.984375 
L 29.296875 69 
L 17.578125 69 
L 17.578125 -6.203125 
L 29.296875 -6.203125 
L 29.296875 -13.1875 
L 8.59375 -13.1875 
z
" id="DejaVuSans-91"/>
       <path d="M 30.421875 75.984375 
L 30.421875 -13.1875 
L 9.71875 -13.1875 
L 9.71875 -6.203125 
L 21.390625 -6.203125 
L 21.390625 69 
L 9.71875 69 
L 9.71875 75.984375 
z
" id="DejaVuSans-93"/>
      </defs>
      <use xlink:href="#DejaVuSans-112"/>
      <use x="63.476562" xlink:href="#DejaVuSans-97"/>
      <use x="124.755859" xlink:href="#DejaVuSans-116"/>
      <use x="163.964844" xlink:href="#DejaVuSans-104"/>
      <use x="227.34375" xlink:href="#DejaVuSans-32"/>
      <use x="259.130859" xlink:href="#DejaVuSans-108"/>
      <use x="286.914062" xlink:href="#DejaVuSans-101"/>
      <use x="348.4375" xlink:href="#DejaVuSans-110"/>
      <use x="411.816406" xlink:href="#DejaVuSans-103"/>
      <use x="475.292969" xlink:href="#DejaVuSans-116"/>
      <use x="514.501953" xlink:href="#DejaVuSans-104"/>
      <use x="577.880859" xlink:href="#DejaVuSans-47"/>
      <use x="611.572266" xlink:href="#DejaVuSans-101"/>
      <use x="671.345703" xlink:href="#DejaVuSans-120"/>
      <use x="730.525391" xlink:href="#DejaVuSans-105"/>
      <use x="758.308594" xlink:href="#DejaVuSans-116"/>
      <use x="797.517578" xlink:href="#DejaVuSans-32"/>
      <use x="829.304688" xlink:href="#DejaVuSans-115"/>
      <use x="881.404297" xlink:href="#DejaVuSans-105"/>
      <use x="909.1875" xlink:href="#DejaVuSans-122"/>
      <use x="961.677734" xlink:href="#DejaVuSans-101"/>
      <use x="1023.201172" xlink:href="#DejaVuSans-32"/>
      <use x="1054.988281" xlink:href="#DejaVuSans-91"/>
      <use x="1094.001953" xlink:href="#DejaVuSans-93"/>
     </g>
    </g>
   </g>
   <g id="line2d_15">
    <path clip-path="url(#p126924349d)" d="M 124.813977 315.949692 
L 146.457614 315.949692 
L 168.10125 315.949692 
L 189.744886 315.949692 
L 211.388523 315.949692 
L 233.032159 315.949692 
L 254.675795 315.949692 
L 276.319432 315.949692 
L 297.963068 315.949692 
L 319.606705 315.949692 
L 341.250341 315.949692 
L 362.893977 315.949692 
L 384.537614 315.949692 
L 406.18125 315.949692 
L 427.824886 315.949692 
L 449.468523 315.949692 
" style="fill:none;stroke:#000080;stroke-linecap:square;stroke-width:1.5;"/>
   </g>
   <g id="line2d_16">
    <path clip-path="url(#p126924349d)" d="M 146.457614 315.949692 
L 168.10125 315.949692 
L 189.744886 315.949692 
L 211.388523 315.949692 
L 233.032159 315.949692 
L 254.675795 315.949692 
L 276.319432 315.949692 
L 297.963068 315.949692 
L 319.606705 315.949692 
L 341.250341 315.949692 
L 362.893977 315.949692 
L 384.537614 315.949692 
L 406.18125 315.949692 
L 427.824886 315.949692 
L 449.468523 315.949692 
" style="fill:none;stroke:#0000cd;stroke-linecap:square;stroke-width:1.5;"/>
   </g>
   <g id="line2d_17">
    <path clip-path="url(#p126924349d)" d="M 146.457614 310.456678 
L 168.10125 312.172377 
L 189.744886 287.538879 
L 211.388523 287.291608 
L 233.032159 287.538879 
L 254.675795 287.538879 
L 276.319432 287.786151 
L 297.963068 287.538879 
L 319.606705 287.538879 
L 341.250341 309.634465 
L 362.893977 310.200283 
L 384.537614 290.166312 
L 406.18125 312.500047 
L 427.824886 289.01643 
L 449.468523 290.413584 
" style="fill:none;stroke:#0008ff;stroke-linecap:square;stroke-width:1.5;"/>
   </g>
   <g id="line2d_18">
    <path clip-path="url(#p126924349d)" d="M 146.457614 304.626871 
L 168.10125 304.537349 
L 189.744886 280.032911 
L 211.388523 276.335994 
L 233.032159 282.898492 
L 254.675795 283.940606 
L 276.319432 284.277399 
L 297.963068 282.561699 
L 319.606705 281.501339 
L 341.250341 282.403949 
L 362.893977 280.440978 
L 384.537614 308.80313 
L 406.18125 282.264445 
L 427.824886 269.071981 
L 449.468523 309.050401 
" style="fill:none;stroke:#004cff;stroke-linecap:square;stroke-width:1.5;"/>
   </g>
   <g id="line2d_19">
    <path clip-path="url(#p126924349d)" d="M 146.457614 262.109776 
L 168.10125 222.87317 
L 189.744886 250.094563 
L 211.388523 231.043601 
L 233.032159 240.849333 
L 254.675795 263.758008 
L 276.319432 263.758008 
L 297.963068 264.00528 
L 319.606705 263.758008 
L 341.250341 284.36692 
L 362.893977 285.764073 
L 384.537614 264.571098 
L 406.18125 264.00528 
L 427.824886 285.516802 
L 449.468523 285.516802 
" style="fill:none;stroke:#0090ff;stroke-linecap:square;stroke-width:1.5;"/>
   </g>
   <g id="line2d_20">
    <path clip-path="url(#p126924349d)" d="M 146.457614 286.662877 
L 168.10125 261.79123 
L 189.744886 236.645704 
L 211.388523 287.309854 
L 233.032159 288.787405 
L 254.675795 287.390252 
L 276.319432 266.126001 
L 297.963068 288.540134 
L 319.606705 265.631458 
L 341.250341 266.78134 
L 362.893977 264.818369 
L 384.537614 266.197276 
L 406.18125 287.390252 
L 427.824886 289.213719 
L 449.468523 289.213719 
" style="fill:none;stroke:#00d4ff;stroke-linecap:square;stroke-width:1.5;"/>
   </g>
   <g id="line2d_21">
    <path clip-path="url(#p126924349d)" d="M 146.457614 288.96264 
L 168.10125 259.146312 
L 189.744886 238.290129 
L 211.388523 298.301199 
L 233.032159 289.034677 
L 254.675795 265.631458 
L 276.319432 267.275883 
L 297.963068 267.931222 
L 319.606705 266.78134 
L 341.250341 267.683951 
L 362.893977 266.78134 
L 384.537614 267.347158 
L 406.18125 288.292862 
L 427.824886 291.652987 
L 449.468523 265.384187 
" style="fill:none;stroke:#29ffce;stroke-linecap:square;stroke-width:1.5;"/>
   </g>
   <g id="line2d_22">
    <path clip-path="url(#p126924349d)" d="M 146.457614 257.829557 
L 168.10125 84.096 
L 189.744886 168.336868 
L 211.388523 166.957961 
L 233.032159 215.21458 
L 254.675795 215.780398 
L 276.319432 215.789521 
L 297.963068 216.355339 
L 319.606705 216.60261 
L 341.250341 215.789521 
L 362.893977 194.843816 
L 384.537614 238.114132 
L 406.18125 216.018546 
L 427.824886 215.205457 
L 449.468523 217.743369 
" style="fill:none;stroke:#60ff97;stroke-linecap:square;stroke-width:1.5;"/>
   </g>
   <g id="line2d_23">
    <path clip-path="url(#p126924349d)" d="M 146.457614 269.274772 
L 168.10125 95.204422 
L 189.744886 115.337037 
L 211.388523 176.458451 
L 233.032159 228.39374 
L 254.675795 227.809676 
L 276.319432 279.951378 
L 297.963068 277.898885 
L 319.606705 279.296039 
L 341.250341 257.537245 
L 362.893977 326.016 
L 384.537614 277.898885 
L 406.18125 302.860053 
L 427.824886 303.771787 
L 449.468523 280.189526 
" style="fill:none;stroke:#97ff60;stroke-linecap:square;stroke-width:1.5;"/>
   </g>
   <g id="line2d_24">
    <path clip-path="url(#p126924349d)" d="M 146.457614 287.619277 
L 168.10125 268.407519 
L 189.744886 243.059575 
L 211.388523 248.382671 
L 233.032159 273.096567 
L 254.675795 269.646922 
L 276.319432 270.221862 
L 297.963068 270.221862 
L 319.606705 270.221862 
L 341.250341 269.319252 
L 362.893977 269.071981 
L 384.537614 295.430302 
L 406.18125 253.875685 
L 427.824886 269.071981 
L 449.468523 270.707282 
" style="fill:none;stroke:#ceff29;stroke-linecap:square;stroke-width:1.5;"/>
   </g>
   <g id="line2d_25">
    <path clip-path="url(#p126924349d)" d="M 146.457614 288.303121 
L 168.10125 262.707906 
L 189.744886 176.080799 
L 211.388523 197.839592 
L 233.032159 254.99021 
L 254.675795 257.042702 
L 276.319432 257.289973 
L 297.963068 278.801496 
L 319.606705 257.289973 
L 341.250341 261.067288 
L 362.893977 258.439855 
L 384.537614 258.439855 
L 406.18125 258.439855 
L 427.824886 233.895878 
L 449.468523 281.339408 
" style="fill:none;stroke:#ffe600;stroke-linecap:square;stroke-width:1.5;"/>
   </g>
   <g id="line2d_26">
    <path clip-path="url(#p126924349d)" d="M 146.457614 260.83141 
L 168.10125 237.535959 
L 189.744886 237.944027 
L 211.388523 260.605431 
L 233.032159 272.841308 
L 254.675795 251.490581 
L 276.319432 276.362228 
L 297.963068 276.043682 
L 319.606705 277.66986 
L 341.250341 277.104042 
L 362.893977 274.646528 
L 384.537614 276.946292 
L 406.18125 279.38556 
L 427.824886 279.138288 
L 449.468523 280.77359 
" style="fill:none;stroke:#ffa700;stroke-linecap:square;stroke-width:1.5;"/>
   </g>
   <g id="line2d_27">
    <path clip-path="url(#p126924349d)" d="M 146.457614 259.681528 
L 168.10125 236.386077 
L 189.744886 237.944027 
L 211.388523 260.605431 
L 233.032159 272.841308 
L 254.675795 253.135006 
L 276.319432 276.362228 
L 297.963068 277.193563 
L 319.606705 277.422589 
L 341.250341 277.104042 
L 362.893977 274.646528 
L 384.537614 276.946292 
L 406.18125 279.38556 
L 427.824886 279.138288 
L 449.468523 280.77359 
" style="fill:none;stroke:#ff6800;stroke-linecap:square;stroke-width:1.5;"/>
   </g>
   <g id="line2d_28">
    <path clip-path="url(#p126924349d)" d="M 146.457614 259.681528 
L 168.10125 236.386077 
L 189.744886 237.944027 
L 211.388523 260.605431 
L 233.032159 272.841308 
L 254.675795 253.135006 
L 276.319432 276.362228 
L 297.963068 277.193563 
L 319.606705 277.422589 
L 341.250341 277.759381 
L 362.893977 274.646528 
L 384.537614 276.946292 
L 406.18125 279.38556 
L 427.824886 279.138288 
L 449.468523 280.77359 
" style="fill:none;stroke:#ff2900;stroke-linecap:square;stroke-width:1.5;"/>
   </g>
   <g id="line2d_29">
    <path clip-path="url(#p126924349d)" d="M 146.457614 259.681528 
L 168.10125 236.386077 
L 189.744886 237.944027 
L 211.388523 260.605431 
L 233.032159 272.841308 
L 254.675795 253.135006 
L 276.319432 276.362228 
L 297.963068 277.193563 
L 319.606705 277.422589 
L 341.250341 277.759381 
L 362.893977 274.646528 
L 384.537614 276.946292 
L 406.18125 279.38556 
L 427.824886 279.138288 
L 449.468523 280.77359 
" style="fill:none;stroke:#cd0000;stroke-linecap:square;stroke-width:1.5;"/>
   </g>
   <g id="line2d_30">
    <path clip-path="url(#p126924349d)" d="M 146.457614 259.681528 
L 168.10125 236.386077 
L 189.744886 237.944027 
L 211.388523 260.605431 
L 233.032159 272.841308 
L 254.675795 253.135006 
L 276.319432 276.362228 
L 297.963068 277.193563 
L 319.606705 277.422589 
L 341.250341 277.759381 
L 362.893977 274.646528 
L 384.537614 276.946292 
L 406.18125 279.38556 
L 427.824886 279.138288 
L 449.468523 280.77359 
" style="fill:none;stroke:#800000;stroke-linecap:square;stroke-width:1.5;"/>
   </g>
   <g id="patch_3">
    <path d="M 108.58125 338.112 
L 108.58125 72 
" style="fill:none;stroke:#000000;stroke-linecap:square;stroke-linejoin:miter;stroke-width:0.8;"/>
   </g>
   <g id="patch_4">
    <path d="M 465.70125 338.112 
L 465.70125 72 
" style="fill:none;stroke:#000000;stroke-linecap:square;stroke-linejoin:miter;stroke-width:0.8;"/>
   </g>
   <g id="patch_5">
    <path d="M 108.58125 338.112 
L 465.70125 338.112 
" style="fill:none;stroke:#000000;stroke-linecap:square;stroke-linejoin:miter;stroke-width:0.8;"/>
   </g>
   <g id="patch_6">
    <path d="M 108.58125 72 
L 465.70125 72 
" style="fill:none;stroke:#000000;stroke-linecap:square;stroke-linejoin:miter;stroke-width:0.8;"/>
   </g>
   <g id="legend_1">
    <g id="patch_7">
     <path d="M 490.55725 314.85 
L 579.016625 314.85 
Q 581.016625 314.85 581.016625 312.85 
L 581.016625 79 
Q 581.016625 77 579.016625 77 
L 490.55725 77 
Q 488.55725 77 488.55725 79 
L 488.55725 312.85 
Q 488.55725 314.85 490.55725 314.85 
z
" style="fill:#ffffff;opacity:0.8;stroke:#cccccc;stroke-linejoin:miter;"/>
    </g>
    <g id="line2d_31">
     <path d="M 492.55725 85.098438 
L 512.55725 85.098438 
" style="fill:none;stroke:#000080;stroke-linecap:square;stroke-width:1.5;"/>
    </g>
    <g id="line2d_32"/>
    <g id="text_17">
     <!-- dilation: 0 -->
     <g transform="translate(520.55725 88.598438)scale(0.1 -0.1)">
      <defs>
       <path d="M 30.609375 48.390625 
Q 23.390625 48.390625 19.1875 42.75 
Q 14.984375 37.109375 14.984375 27.296875 
Q 14.984375 17.484375 19.15625 11.84375 
Q 23.34375 6.203125 30.609375 6.203125 
Q 37.796875 6.203125 41.984375 11.859375 
Q 46.1875 17.53125 46.1875 27.296875 
Q 46.1875 37.015625 41.984375 42.703125 
Q 37.796875 48.390625 30.609375 48.390625 
z
M 30.609375 56 
Q 42.328125 56 49.015625 48.375 
Q 55.71875 40.765625 55.71875 27.296875 
Q 55.71875 13.875 49.015625 6.21875 
Q 42.328125 -1.421875 30.609375 -1.421875 
Q 18.84375 -1.421875 12.171875 6.21875 
Q 5.515625 13.875 5.515625 27.296875 
Q 5.515625 40.765625 12.171875 48.375 
Q 18.84375 56 30.609375 56 
z
" id="DejaVuSans-111"/>
       <path d="M 11.71875 12.40625 
L 22.015625 12.40625 
L 22.015625 0 
L 11.71875 0 
z
M 11.71875 51.703125 
L 22.015625 51.703125 
L 22.015625 39.3125 
L 11.71875 39.3125 
z
" id="DejaVuSans-58"/>
      </defs>
      <use xlink:href="#DejaVuSans-100"/>
      <use x="63.476562" xlink:href="#DejaVuSans-105"/>
      <use x="91.259766" xlink:href="#DejaVuSans-108"/>
      <use x="119.042969" xlink:href="#DejaVuSans-97"/>
      <use x="180.322266" xlink:href="#DejaVuSans-116"/>
      <use x="219.53125" xlink:href="#DejaVuSans-105"/>
      <use x="247.314453" xlink:href="#DejaVuSans-111"/>
      <use x="308.496094" xlink:href="#DejaVuSans-110"/>
      <use x="371.875" xlink:href="#DejaVuSans-58"/>
      <use x="405.566406" xlink:href="#DejaVuSans-32"/>
      <use x="437.353516" xlink:href="#DejaVuSans-48"/>
     </g>
    </g>
    <g id="line2d_33">
     <path d="M 492.55725 99.776563 
L 512.55725 99.776563 
" style="fill:none;stroke:#0000cd;stroke-linecap:square;stroke-width:1.5;"/>
    </g>
    <g id="line2d_34"/>
    <g id="text_18">
     <!-- dilation: 1 -->
     <g transform="translate(520.55725 103.276563)scale(0.1 -0.1)">
      <use xlink:href="#DejaVuSans-100"/>
      <use x="63.476562" xlink:href="#DejaVuSans-105"/>
      <use x="91.259766" xlink:href="#DejaVuSans-108"/>
      <use x="119.042969" xlink:href="#DejaVuSans-97"/>
      <use x="180.322266" xlink:href="#DejaVuSans-116"/>
      <use x="219.53125" xlink:href="#DejaVuSans-105"/>
      <use x="247.314453" xlink:href="#DejaVuSans-111"/>
      <use x="308.496094" xlink:href="#DejaVuSans-110"/>
      <use x="371.875" xlink:href="#DejaVuSans-58"/>
      <use x="405.566406" xlink:href="#DejaVuSans-32"/>
      <use x="437.353516" xlink:href="#DejaVuSans-49"/>
     </g>
    </g>
    <g id="line2d_35">
     <path d="M 492.55725 114.454688 
L 512.55725 114.454688 
" style="fill:none;stroke:#0008ff;stroke-linecap:square;stroke-width:1.5;"/>
    </g>
    <g id="line2d_36"/>
    <g id="text_19">
     <!-- dilation: 2 -->
     <g transform="translate(520.55725 117.954688)scale(0.1 -0.1)">
      <use xlink:href="#DejaVuSans-100"/>
      <use x="63.476562" xlink:href="#DejaVuSans-105"/>
      <use x="91.259766" xlink:href="#DejaVuSans-108"/>
      <use x="119.042969" xlink:href="#DejaVuSans-97"/>
      <use x="180.322266" xlink:href="#DejaVuSans-116"/>
      <use x="219.53125" xlink:href="#DejaVuSans-105"/>
      <use x="247.314453" xlink:href="#DejaVuSans-111"/>
      <use x="308.496094" xlink:href="#DejaVuSans-110"/>
      <use x="371.875" xlink:href="#DejaVuSans-58"/>
      <use x="405.566406" xlink:href="#DejaVuSans-32"/>
      <use x="437.353516" xlink:href="#DejaVuSans-50"/>
     </g>
    </g>
    <g id="line2d_37">
     <path d="M 492.55725 129.132813 
L 512.55725 129.132813 
" style="fill:none;stroke:#004cff;stroke-linecap:square;stroke-width:1.5;"/>
    </g>
    <g id="line2d_38"/>
    <g id="text_20">
     <!-- dilation: 3 -->
     <g transform="translate(520.55725 132.632813)scale(0.1 -0.1)">
      <use xlink:href="#DejaVuSans-100"/>
      <use x="63.476562" xlink:href="#DejaVuSans-105"/>
      <use x="91.259766" xlink:href="#DejaVuSans-108"/>
      <use x="119.042969" xlink:href="#DejaVuSans-97"/>
      <use x="180.322266" xlink:href="#DejaVuSans-116"/>
      <use x="219.53125" xlink:href="#DejaVuSans-105"/>
      <use x="247.314453" xlink:href="#DejaVuSans-111"/>
      <use x="308.496094" xlink:href="#DejaVuSans-110"/>
      <use x="371.875" xlink:href="#DejaVuSans-58"/>
      <use x="405.566406" xlink:href="#DejaVuSans-32"/>
      <use x="437.353516" xlink:href="#DejaVuSans-51"/>
     </g>
    </g>
    <g id="line2d_39">
     <path d="M 492.55725 143.810938 
L 512.55725 143.810938 
" style="fill:none;stroke:#0090ff;stroke-linecap:square;stroke-width:1.5;"/>
    </g>
    <g id="line2d_40"/>
    <g id="text_21">
     <!-- dilation: 4 -->
     <g transform="translate(520.55725 147.310938)scale(0.1 -0.1)">
      <use xlink:href="#DejaVuSans-100"/>
      <use x="63.476562" xlink:href="#DejaVuSans-105"/>
      <use x="91.259766" xlink:href="#DejaVuSans-108"/>
      <use x="119.042969" xlink:href="#DejaVuSans-97"/>
      <use x="180.322266" xlink:href="#DejaVuSans-116"/>
      <use x="219.53125" xlink:href="#DejaVuSans-105"/>
      <use x="247.314453" xlink:href="#DejaVuSans-111"/>
      <use x="308.496094" xlink:href="#DejaVuSans-110"/>
      <use x="371.875" xlink:href="#DejaVuSans-58"/>
      <use x="405.566406" xlink:href="#DejaVuSans-32"/>
      <use x="437.353516" xlink:href="#DejaVuSans-52"/>
     </g>
    </g>
    <g id="line2d_41">
     <path d="M 492.55725 158.489063 
L 512.55725 158.489063 
" style="fill:none;stroke:#00d4ff;stroke-linecap:square;stroke-width:1.5;"/>
    </g>
    <g id="line2d_42"/>
    <g id="text_22">
     <!-- dilation: 5 -->
     <g transform="translate(520.55725 161.989063)scale(0.1 -0.1)">
      <use xlink:href="#DejaVuSans-100"/>
      <use x="63.476562" xlink:href="#DejaVuSans-105"/>
      <use x="91.259766" xlink:href="#DejaVuSans-108"/>
      <use x="119.042969" xlink:href="#DejaVuSans-97"/>
      <use x="180.322266" xlink:href="#DejaVuSans-116"/>
      <use x="219.53125" xlink:href="#DejaVuSans-105"/>
      <use x="247.314453" xlink:href="#DejaVuSans-111"/>
      <use x="308.496094" xlink:href="#DejaVuSans-110"/>
      <use x="371.875" xlink:href="#DejaVuSans-58"/>
      <use x="405.566406" xlink:href="#DejaVuSans-32"/>
      <use x="437.353516" xlink:href="#DejaVuSans-53"/>
     </g>
    </g>
    <g id="line2d_43">
     <path d="M 492.55725 173.167188 
L 512.55725 173.167188 
" style="fill:none;stroke:#29ffce;stroke-linecap:square;stroke-width:1.5;"/>
    </g>
    <g id="line2d_44"/>
    <g id="text_23">
     <!-- dilation: 6 -->
     <g transform="translate(520.55725 176.667188)scale(0.1 -0.1)">
      <use xlink:href="#DejaVuSans-100"/>
      <use x="63.476562" xlink:href="#DejaVuSans-105"/>
      <use x="91.259766" xlink:href="#DejaVuSans-108"/>
      <use x="119.042969" xlink:href="#DejaVuSans-97"/>
      <use x="180.322266" xlink:href="#DejaVuSans-116"/>
      <use x="219.53125" xlink:href="#DejaVuSans-105"/>
      <use x="247.314453" xlink:href="#DejaVuSans-111"/>
      <use x="308.496094" xlink:href="#DejaVuSans-110"/>
      <use x="371.875" xlink:href="#DejaVuSans-58"/>
      <use x="405.566406" xlink:href="#DejaVuSans-32"/>
      <use x="437.353516" xlink:href="#DejaVuSans-54"/>
     </g>
    </g>
    <g id="line2d_45">
     <path d="M 492.55725 187.845313 
L 512.55725 187.845313 
" style="fill:none;stroke:#60ff97;stroke-linecap:square;stroke-width:1.5;"/>
    </g>
    <g id="line2d_46"/>
    <g id="text_24">
     <!-- dilation: 7 -->
     <g transform="translate(520.55725 191.345313)scale(0.1 -0.1)">
      <defs>
       <path d="M 8.203125 72.90625 
L 55.078125 72.90625 
L 55.078125 68.703125 
L 28.609375 0 
L 18.3125 0 
L 43.21875 64.59375 
L 8.203125 64.59375 
z
" id="DejaVuSans-55"/>
      </defs>
      <use xlink:href="#DejaVuSans-100"/>
      <use x="63.476562" xlink:href="#DejaVuSans-105"/>
      <use x="91.259766" xlink:href="#DejaVuSans-108"/>
      <use x="119.042969" xlink:href="#DejaVuSans-97"/>
      <use x="180.322266" xlink:href="#DejaVuSans-116"/>
      <use x="219.53125" xlink:href="#DejaVuSans-105"/>
      <use x="247.314453" xlink:href="#DejaVuSans-111"/>
      <use x="308.496094" xlink:href="#DejaVuSans-110"/>
      <use x="371.875" xlink:href="#DejaVuSans-58"/>
      <use x="405.566406" xlink:href="#DejaVuSans-32"/>
      <use x="437.353516" xlink:href="#DejaVuSans-55"/>
     </g>
    </g>
    <g id="line2d_47">
     <path d="M 492.55725 202.523438 
L 512.55725 202.523438 
" style="fill:none;stroke:#97ff60;stroke-linecap:square;stroke-width:1.5;"/>
    </g>
    <g id="line2d_48"/>
    <g id="text_25">
     <!-- dilation: 8 -->
     <g transform="translate(520.55725 206.023438)scale(0.1 -0.1)">
      <use xlink:href="#DejaVuSans-100"/>
      <use x="63.476562" xlink:href="#DejaVuSans-105"/>
      <use x="91.259766" xlink:href="#DejaVuSans-108"/>
      <use x="119.042969" xlink:href="#DejaVuSans-97"/>
      <use x="180.322266" xlink:href="#DejaVuSans-116"/>
      <use x="219.53125" xlink:href="#DejaVuSans-105"/>
      <use x="247.314453" xlink:href="#DejaVuSans-111"/>
      <use x="308.496094" xlink:href="#DejaVuSans-110"/>
      <use x="371.875" xlink:href="#DejaVuSans-58"/>
      <use x="405.566406" xlink:href="#DejaVuSans-32"/>
      <use x="437.353516" xlink:href="#DejaVuSans-56"/>
     </g>
    </g>
    <g id="line2d_49">
     <path d="M 492.55725 217.201563 
L 512.55725 217.201563 
" style="fill:none;stroke:#ceff29;stroke-linecap:square;stroke-width:1.5;"/>
    </g>
    <g id="line2d_50"/>
    <g id="text_26">
     <!-- dilation: 9 -->
     <g transform="translate(520.55725 220.701563)scale(0.1 -0.1)">
      <defs>
       <path d="M 10.984375 1.515625 
L 10.984375 10.5 
Q 14.703125 8.734375 18.5 7.8125 
Q 22.3125 6.890625 25.984375 6.890625 
Q 35.75 6.890625 40.890625 13.453125 
Q 46.046875 20.015625 46.78125 33.40625 
Q 43.953125 29.203125 39.59375 26.953125 
Q 35.25 24.703125 29.984375 24.703125 
Q 19.046875 24.703125 12.671875 31.3125 
Q 6.296875 37.9375 6.296875 49.421875 
Q 6.296875 60.640625 12.9375 67.421875 
Q 19.578125 74.21875 30.609375 74.21875 
Q 43.265625 74.21875 49.921875 64.515625 
Q 56.59375 54.828125 56.59375 36.375 
Q 56.59375 19.140625 48.40625 8.859375 
Q 40.234375 -1.421875 26.421875 -1.421875 
Q 22.703125 -1.421875 18.890625 -0.6875 
Q 15.09375 0.046875 10.984375 1.515625 
z
M 30.609375 32.421875 
Q 37.25 32.421875 41.125 36.953125 
Q 45.015625 41.5 45.015625 49.421875 
Q 45.015625 57.28125 41.125 61.84375 
Q 37.25 66.40625 30.609375 66.40625 
Q 23.96875 66.40625 20.09375 61.84375 
Q 16.21875 57.28125 16.21875 49.421875 
Q 16.21875 41.5 20.09375 36.953125 
Q 23.96875 32.421875 30.609375 32.421875 
z
" id="DejaVuSans-57"/>
      </defs>
      <use xlink:href="#DejaVuSans-100"/>
      <use x="63.476562" xlink:href="#DejaVuSans-105"/>
      <use x="91.259766" xlink:href="#DejaVuSans-108"/>
      <use x="119.042969" xlink:href="#DejaVuSans-97"/>
      <use x="180.322266" xlink:href="#DejaVuSans-116"/>
      <use x="219.53125" xlink:href="#DejaVuSans-105"/>
      <use x="247.314453" xlink:href="#DejaVuSans-111"/>
      <use x="308.496094" xlink:href="#DejaVuSans-110"/>
      <use x="371.875" xlink:href="#DejaVuSans-58"/>
      <use x="405.566406" xlink:href="#DejaVuSans-32"/>
      <use x="437.353516" xlink:href="#DejaVuSans-57"/>
     </g>
    </g>
    <g id="line2d_51">
     <path d="M 492.55725 231.879688 
L 512.55725 231.879688 
" style="fill:none;stroke:#ffe600;stroke-linecap:square;stroke-width:1.5;"/>
    </g>
    <g id="line2d_52"/>
    <g id="text_27">
     <!-- dilation: 10 -->
     <g transform="translate(520.55725 235.379688)scale(0.1 -0.1)">
      <use xlink:href="#DejaVuSans-100"/>
      <use x="63.476562" xlink:href="#DejaVuSans-105"/>
      <use x="91.259766" xlink:href="#DejaVuSans-108"/>
      <use x="119.042969" xlink:href="#DejaVuSans-97"/>
      <use x="180.322266" xlink:href="#DejaVuSans-116"/>
      <use x="219.53125" xlink:href="#DejaVuSans-105"/>
      <use x="247.314453" xlink:href="#DejaVuSans-111"/>
      <use x="308.496094" xlink:href="#DejaVuSans-110"/>
      <use x="371.875" xlink:href="#DejaVuSans-58"/>
      <use x="405.566406" xlink:href="#DejaVuSans-32"/>
      <use x="437.353516" xlink:href="#DejaVuSans-49"/>
      <use x="500.976562" xlink:href="#DejaVuSans-48"/>
     </g>
    </g>
    <g id="line2d_53">
     <path d="M 492.55725 246.557813 
L 512.55725 246.557813 
" style="fill:none;stroke:#ffa700;stroke-linecap:square;stroke-width:1.5;"/>
    </g>
    <g id="line2d_54"/>
    <g id="text_28">
     <!-- dilation: 11 -->
     <g transform="translate(520.55725 250.057813)scale(0.1 -0.1)">
      <use xlink:href="#DejaVuSans-100"/>
      <use x="63.476562" xlink:href="#DejaVuSans-105"/>
      <use x="91.259766" xlink:href="#DejaVuSans-108"/>
      <use x="119.042969" xlink:href="#DejaVuSans-97"/>
      <use x="180.322266" xlink:href="#DejaVuSans-116"/>
      <use x="219.53125" xlink:href="#DejaVuSans-105"/>
      <use x="247.314453" xlink:href="#DejaVuSans-111"/>
      <use x="308.496094" xlink:href="#DejaVuSans-110"/>
      <use x="371.875" xlink:href="#DejaVuSans-58"/>
      <use x="405.566406" xlink:href="#DejaVuSans-32"/>
      <use x="437.353516" xlink:href="#DejaVuSans-49"/>
      <use x="500.976562" xlink:href="#DejaVuSans-49"/>
     </g>
    </g>
    <g id="line2d_55">
     <path d="M 492.55725 261.235937 
L 512.55725 261.235937 
" style="fill:none;stroke:#ff6800;stroke-linecap:square;stroke-width:1.5;"/>
    </g>
    <g id="line2d_56"/>
    <g id="text_29">
     <!-- dilation: 12 -->
     <g transform="translate(520.55725 264.735937)scale(0.1 -0.1)">
      <use xlink:href="#DejaVuSans-100"/>
      <use x="63.476562" xlink:href="#DejaVuSans-105"/>
      <use x="91.259766" xlink:href="#DejaVuSans-108"/>
      <use x="119.042969" xlink:href="#DejaVuSans-97"/>
      <use x="180.322266" xlink:href="#DejaVuSans-116"/>
      <use x="219.53125" xlink:href="#DejaVuSans-105"/>
      <use x="247.314453" xlink:href="#DejaVuSans-111"/>
      <use x="308.496094" xlink:href="#DejaVuSans-110"/>
      <use x="371.875" xlink:href="#DejaVuSans-58"/>
      <use x="405.566406" xlink:href="#DejaVuSans-32"/>
      <use x="437.353516" xlink:href="#DejaVuSans-49"/>
      <use x="500.976562" xlink:href="#DejaVuSans-50"/>
     </g>
    </g>
    <g id="line2d_57">
     <path d="M 492.55725 275.914062 
L 512.55725 275.914062 
" style="fill:none;stroke:#ff2900;stroke-linecap:square;stroke-width:1.5;"/>
    </g>
    <g id="line2d_58"/>
    <g id="text_30">
     <!-- dilation: 13 -->
     <g transform="translate(520.55725 279.414062)scale(0.1 -0.1)">
      <use xlink:href="#DejaVuSans-100"/>
      <use x="63.476562" xlink:href="#DejaVuSans-105"/>
      <use x="91.259766" xlink:href="#DejaVuSans-108"/>
      <use x="119.042969" xlink:href="#DejaVuSans-97"/>
      <use x="180.322266" xlink:href="#DejaVuSans-116"/>
      <use x="219.53125" xlink:href="#DejaVuSans-105"/>
      <use x="247.314453" xlink:href="#DejaVuSans-111"/>
      <use x="308.496094" xlink:href="#DejaVuSans-110"/>
      <use x="371.875" xlink:href="#DejaVuSans-58"/>
      <use x="405.566406" xlink:href="#DejaVuSans-32"/>
      <use x="437.353516" xlink:href="#DejaVuSans-49"/>
      <use x="500.976562" xlink:href="#DejaVuSans-51"/>
     </g>
    </g>
    <g id="line2d_59">
     <path d="M 492.55725 290.592188 
L 512.55725 290.592188 
" style="fill:none;stroke:#cd0000;stroke-linecap:square;stroke-width:1.5;"/>
    </g>
    <g id="line2d_60"/>
    <g id="text_31">
     <!-- dilation: 14 -->
     <g transform="translate(520.55725 294.092188)scale(0.1 -0.1)">
      <use xlink:href="#DejaVuSans-100"/>
      <use x="63.476562" xlink:href="#DejaVuSans-105"/>
      <use x="91.259766" xlink:href="#DejaVuSans-108"/>
      <use x="119.042969" xlink:href="#DejaVuSans-97"/>
      <use x="180.322266" xlink:href="#DejaVuSans-116"/>
      <use x="219.53125" xlink:href="#DejaVuSans-105"/>
      <use x="247.314453" xlink:href="#DejaVuSans-111"/>
      <use x="308.496094" xlink:href="#DejaVuSans-110"/>
      <use x="371.875" xlink:href="#DejaVuSans-58"/>
      <use x="405.566406" xlink:href="#DejaVuSans-32"/>
      <use x="437.353516" xlink:href="#DejaVuSans-49"/>
      <use x="500.976562" xlink:href="#DejaVuSans-52"/>
     </g>
    </g>
    <g id="line2d_61">
     <path d="M 492.55725 305.270312 
L 512.55725 305.270312 
" style="fill:none;stroke:#800000;stroke-linecap:square;stroke-width:1.5;"/>
    </g>
    <g id="line2d_62"/>
    <g id="text_32">
     <!-- dilation: 15 -->
     <g transform="translate(520.55725 308.770312)scale(0.1 -0.1)">
      <use xlink:href="#DejaVuSans-100"/>
      <use x="63.476562" xlink:href="#DejaVuSans-105"/>
      <use x="91.259766" xlink:href="#DejaVuSans-108"/>
      <use x="119.042969" xlink:href="#DejaVuSans-97"/>
      <use x="180.322266" xlink:href="#DejaVuSans-116"/>
      <use x="219.53125" xlink:href="#DejaVuSans-105"/>
      <use x="247.314453" xlink:href="#DejaVuSans-111"/>
      <use x="308.496094" xlink:href="#DejaVuSans-110"/>
      <use x="371.875" xlink:href="#DejaVuSans-58"/>
      <use x="405.566406" xlink:href="#DejaVuSans-32"/>
      <use x="437.353516" xlink:href="#DejaVuSans-49"/>
      <use x="500.976562" xlink:href="#DejaVuSans-53"/>
     </g>
    </g>
   </g>
  </g>
 </g>
 <defs>
  <clipPath id="p126924349d">
   <rect height="266.112" width="357.12" x="108.58125" y="72"/>
  </clipPath>
 </defs>
</svg>
